<svg xmlns="http://www.w3.org/2000/svg">
    <symbol id="times"  viewBox="0 0 300 300" >
        <line fill="none" stroke-width="26" stroke-linecap="round" stroke-miterlimit="10" x1="39.905" y1="255.286" x2="253.238" y2="41.953"/>
        <line fill="none" stroke-width="26" stroke-linecap="round" stroke-miterlimit="10" x1="253.238" y1="255.287" x2="39.905" y2="41.953"/>
    </symbol>

    <symbol id="check-in" viewBox="0 0 300 300">
        <path fill="none"  stroke-width="12" stroke-miterlimit="10" d="M278,252.178c0,11.775-6.939,19.822-20.125,19.822
	H46.006C34.185,272,26,265.576,26,252.585V64.595C26,56.474,31.912,46,46.46,46h210.959C271.515,46,278,54.038,278,63.376V252.178z"
        />
        <line fill="none"  stroke-width="12" stroke-miterlimit="10" x1="26" y1="97" x2="278" y2="97"/>
        <polyline fill="none"  stroke-width="12" stroke-linecap="round" stroke-linejoin="round" stroke-miterlimit="10" points="
	206.273,151.281 131.028,218.479 94.655,185.591 "/>
        <line fill="none"  stroke-width="12" stroke-linecap="round" stroke-linejoin="round" stroke-miterlimit="10" x1="85" y1="46" x2="85" y2="11"/>
        <line fill="none"  stroke-width="12" stroke-linecap="round" stroke-linejoin="round" stroke-miterlimit="10" x1="220" y1="46" x2="220" y2="11"/>
    </symbol>


    <symbol id="food" viewBox="0 0 300 300">
        <g>
            <g>
                <path d="M126.03,48.66c-12.542,44.873,19.416,92.973,56.849,114.942c30.962,18.172,85.972,43.413,105.526-2.699
			c9.42-22.214,0.693-45.475-11.697-64.549c-12.745-19.618-29.148-38.552-47.741-52.783c-19.787-15.144-44.461-24.317-69.48-20.233
			c-20.863,3.406-39.096,18.184-37.443,40.752c0.562,7.67,12.565,7.725,12,0c-1.966-26.858,30.666-32.725,51.178-28.491
			c26.481,5.467,46.663,24.45,63.715,44.208c15.225,17.64,34.783,41.514,31.254,66.578c-1.439,10.219-6.949,20.823-16.173,25.934
			c-7.704,4.268-17.541,3.564-25.856,1.94c-13.482-2.634-26.215-8.51-38.282-14.895c-12.828-6.787-24.801-14.264-34.948-24.766
			c-20.112-20.815-35.495-53.531-27.329-82.749C139.688,44.383,128.11,41.219,126.03,48.66L126.03,48.66z"/>
            </g>
        </g>
        <g>
            <g>
                <path d="M137.643,32.232c-10.898,3.938-18.413,13.532-24.53,22.943c-7.863,12.097-12.73,25.819-17.292,39.414
			c-3.945,11.756-5.971,23.757-6.3,36.151c-0.243,9.153-0.414,18.296-1.359,27.412c-1.766,17.031-8.231,41.804-28.727,44.153
			c-6.187,0.709-12.434,0.275-18.614,1.173c-6.645,0.964-12.008,3.719-17.121,8.014c-8.275,6.95-11.957,19.467-9.977,29.907
			c3.74,19.722,32.917,16.466,46.502,12.286c-2.532-1.929-5.063-3.857-7.595-5.786c0.333,6.354-2.154,12.226-0.529,18.577
			c1.424,5.568,6.711,9.881,11.452,12.579c9.497,5.405,21.945,7.774,32.685,6.098c20.873-3.259,19.887-28.304,29.367-42.192
			c11.963-17.526,35.618-26.699,55.054-32.591c10.811-3.276,21.802-4.935,32.851-7.091c14.084-2.75,27.56-7.705,40.747-13.264
			c2.707-1.141,5.403-2.303,8.097-3.476c7.079-3.082,0.964-13.418-6.057-10.361c-12.192,5.309-24.517,10.196-37.399,13.57
			c-11.085,2.902-22.513,4.089-33.63,6.889c-20.536,5.172-40.935,13.517-57.529,26.877c-7.059,5.684-13.225,12.931-16.895,21.261
			c-3.399,7.717-4.463,16.413-9.107,23.565c-5.062,7.797-16.094,5.563-23.579,3.589c-4.781-1.261-9.68-3.083-13.17-6.705
			c-3.843-3.988-0.099-12.365-0.358-17.325c-0.197-3.771-3.699-6.984-7.595-5.786c-8.317,2.56-17.691,4.07-26.184,1.488
			c-8.859-2.694-5.779-13.889-2.116-19.799c7.212-11.634,22.394-8.159,33.767-9.88c10.515-1.591,18.901-8.176,25.145-16.485
			c11.731-15.614,12.992-37.74,13.615-56.498c0.355-10.705,0.4-21.248,2.819-31.755c3.071-13.343,8.097-26.959,14.316-39.13
			c4.71-9.217,12.011-22.482,22.438-26.25C148.053,41.195,144.939,29.596,137.643,32.232L137.643,32.232z"/>
            </g>
        </g>
        <g>
            <path d="M194.438,91.918c-6.82,11.385,13.582,33.6,23.39,17.789C226.126,97.189,202.737,76.107,194.438,91.918"/>
        </g>
    </symbol>

    <symbol id="members" viewBox="0 0 300 300">
        <g>
            <g>
                <path d="M242.053,37.753c1.103,8.326-1.583,15.72-6.341,22.478c-1.117,1.586,1.486,3.083,2.59,1.515
			c5.03-7.145,7.916-15.196,6.751-23.992C244.803,35.864,241.8,35.839,242.053,37.753L242.053,37.753z"/>
            </g>
        </g>
        <g>
            <g>
                <path d="M246.034,36.46c-2.175,10.077,4.911,16.828,7.854,25.821c0.599,1.83,3.496,1.046,2.893-0.798
			c-2.668-8.154-9.816-15.131-7.854-24.226C249.334,35.372,246.442,34.569,246.034,36.46L246.034,36.46z"/>
            </g>
        </g>
        <g>
            <g>
                <path d="M104.945,54.051c11.848-2.22,23.669-4.511,35.689-5.59c6.526-0.586,13.28-0.917,19.783,0.076
			c3.177,0.485,9.392,1.672,9.763,5.78c0.398,4.418-3.462,9.165-5.887,12.472c-3.952,5.392-8.652,10.268-13.23,15.124
			c-7.268,7.707-16.839,15.659-21.012,25.642c-1.492,3.569,4.317,5.11,5.786,1.595c1.972-4.719,6.168-8.758,9.551-12.466
			c5.05-5.536,10.327-10.858,15.369-16.401c6.064-6.665,18.456-18.665,14.853-28.936c-3.884-11.068-22.497-9.678-31.438-9.151
			c-13.752,0.811-27.31,3.539-40.821,6.07C99.55,48.978,101.164,54.759,104.945,54.051L104.945,54.051z"/>
            </g>
        </g>
        <g>
            <g>
                <path d="M108.453,51.956c3.131,18.429,21.769,33.483,19.527,52.823c-0.445,3.839,5.56,3.796,6,0
			c2.355-20.326-16.497-35.321-19.741-54.417C113.591,46.552,107.81,48.172,108.453,51.956L108.453,51.956z"/>
            </g>
        </g>
        <g>
            <g>
                <path d="M123.126,66.957c4.03,0.073,7.794,1.161,10.72,4.029c1.382,1.354,3.504-0.765,2.121-2.121
			c-3.492-3.423-8.023-4.821-12.841-4.908C121.191,63.921,121.194,66.922,123.126,66.957L123.126,66.957z"/>
            </g>
        </g>
        <g>
            <g>
                <path d="M147.087,71.372c2.316-0.791,4.828-1.497,6.904-2.832c1.621-1.042,0.118-3.64-1.514-2.591
			c-1.868,1.201-4.104,1.818-6.188,2.53C144.469,69.101,145.251,71.999,147.087,71.372L147.087,71.372z"/>
            </g>
        </g>
        <g>
            <g>
                <path d="M124.037,101.756c5.137,0.828,10.059,0.829,15.196,0c1.906-0.307,1.094-3.198-0.798-2.893c-4.587,0.74-9.013,0.739-13.6,0
			C122.943,98.558,122.131,101.449,124.037,101.756L124.037,101.756z"/>
            </g>
        </g>
        <g>
            <g>
                <path d="M130.843,101.602c2.115,9.022-3.685,17.351-5.236,26.012c-0.339,1.892,2.552,2.7,2.893,0.798
			c1.675-9.352,7.525-17.844,5.236-27.608C133.294,98.921,130.402,99.72,130.843,101.602L130.843,101.602z"/>
            </g>
        </g>
        <g>
            <path d="M113.637,215.592c30.106-25.021,64.467-89.366,57.922-91.154c-6.544-1.788-63.158-2.457-68.067,0"/>
        </g>
        <g>
            <g>
                <path d="M112.379,214.794c-9.749,25.037-28.198,45.538-37.959,70.601c-1.406,3.61,4.398,5.159,5.786,1.596
			c9.75-25.036,28.199-45.537,37.959-70.601C119.571,212.778,113.768,211.229,112.379,214.794L112.379,214.794z"/>
            </g>
        </g>
        <g>
            <g>
                <path d="M114.999,215.497c9.542,22.996,22.411,44.361,33.026,66.847c1.651,3.498,6.822,0.45,5.181-3.027
			c-10.39-22.008-23.082-42.91-32.42-65.415C119.324,210.381,113.516,211.923,114.999,215.497L114.999,215.497z"/>
            </g>
        </g>
        <g>
            <g>
                <path d="M162.396,145.312c26.194-0.021,52.427-0.799,78.538,1.787c3.85,0.381,3.813-5.623,0-6
			c-26.111-2.586-52.344-1.809-78.538-1.787C158.526,139.315,158.526,145.315,162.396,145.312L162.396,145.312z"/>
            </g>
        </g>
        <g>
            <g>
                <path d="M232.89,137.843c0.123,3.761,1.09,7.519,0.054,11.219c-0.356,1.274,1.068,2.353,2.203,1.694
			c7.61-4.422,14.454-9.864,21.248-15.427c0.973-0.796,0.209-2.706-1.061-2.561c-7.674,0.876-15.396,1.727-22.652,4.521
			c-1.786,0.688-1.011,3.589,0.797,2.893c7.014-2.701,14.435-3.567,21.855-4.414c-0.354-0.854-0.707-1.707-1.061-2.561
			c-6.599,5.403-13.252,10.664-20.641,14.957c0.734,0.565,1.469,1.129,2.203,1.694c1.12-3.999,0.188-7.947,0.054-12.017
			C235.826,135.913,232.826,135.907,232.89,137.843L232.89,137.843z"/>
            </g>
        </g>
        <g>
            <g>
                <path d="M96.547,132.479c0.652,12.382-6.191,23.623-12.483,33.771c-6.753,10.893-14.335,21.35-19.047,33.353
			c1.929,0,3.857,0,5.786,0c-1.836-5.609-3.416-11.295-4.995-16.98c-0.895-3.218-6.034-2.639-5.893,0.798
			c0.201,4.921,1.562,9.255,3.436,13.782c0.836,2.019,3.261,3.061,5.014,1.323c5.466-5.415,11.188-10.564,16.653-15.98
			c1.507-1.493,0.94-4.584-1.324-5.014c-6.84-1.299-13.844-1.977-20.779-1.106c-3.786,0.475-3.833,6.48,0,6
			c6.407-0.804,12.857-0.31,19.185,0.892c-0.441-1.671-0.883-3.343-1.324-5.014c-5.466,5.416-11.187,10.565-16.653,15.98
			c1.671,0.441,3.343,0.882,5.014,1.323c-1.654-3.994-3.043-7.815-3.222-12.187c-1.964,0.266-3.929,0.531-5.893,0.798
			c1.58,5.686,3.16,11.37,4.995,16.98c0.975,2.979,4.718,2.721,5.786,0c4.873-12.413,13.159-23.265,20.075-34.57
			c6.261-10.236,12.32-21.802,11.67-34.149C102.345,128.63,96.344,128.61,96.547,132.479L96.547,132.479z"/>
            </g>
        </g>
        <g>
            <g>
                <path d="M62.723,185.208c0.128,1.615,1.186,2.907,1.31,4.468c0.151,1.906,2.962,1.957,3,0c0.036-1.85,0.38-3.427,1.633-4.83
			c1.313-1.472,3.007-2.626,4.472-3.939c-0.785-0.605-1.57-1.212-2.356-1.817c-1.211,1.803-1.727,4.252-2.299,6.314
			c-0.327,1.176-1.582,4.123-0.416,5.164c0.458,0.409,1.27,0.653,1.818,0.234c0.585-0.447,0.769-0.947,1.022-1.621
			c0.682-1.814-2.219-2.591-2.893-0.797c-0.166,0.441-0.209,0.26,0.356-0.172c0.606,0.078,1.211,0.156,1.817,0.234
			c0.556,0.496,0.315,1.471,0.463,0.698c0.064-0.333,0.143-0.663,0.221-0.992c0.21-0.896,0.454-1.784,0.705-2.67
			c0.454-1.601,0.855-3.479,1.796-4.88c0.993-1.479-1.141-2.907-2.356-1.817c-1.671,1.498-3.575,2.809-5,4.559
			c-1.486,1.824-1.939,4.026-1.983,6.332c1,0,2,0,3,0c-0.128-1.615-1.186-2.907-1.31-4.468
			C65.57,183.293,62.569,183.278,62.723,185.208L62.723,185.208z"/>
            </g>
        </g>
        <g>
            <g>
                <path d="M241.971,39.889c1.404,10.402,0.922,20.903,0.783,31.364c-0.136,10.245,1.24,20.055,2.279,30.207
			c1.05,10.266,0.2,20.072-0.729,30.283c-1,10.97-0.135,22.047-0.336,33.043c-0.188,10.291-2.973,20.124-4.545,30.234
			c-1.446,9.308-0.839,18.914-0.566,28.294c0.593,20.329,2.54,40.688,7.041,60.547c0.854,3.772,6.64,2.172,5.785-1.596
			c-4.527-19.978-6.285-40.372-6.88-60.814c-0.297-10.185-0.531-20.209,1.335-30.265c1.891-10.191,3.795-19.875,3.882-30.288
			c0.09-10.671-0.925-21.573,0.629-32.179c1.418-9.68,1.182-19.471,0.188-29.177c-1.039-10.148-2.193-19.931-2.058-30.166
			c0.138-10.418,0.375-20.729-1.023-31.083C247.24,34.475,241.46,36.108,241.971,39.889L241.971,39.889z"/>
            </g>
        </g>
        <g>
            <g>
                <path d="M141.97,282.121c0.178,1.06,0.478,2.069,0.656,3.128c0.266,1.58,2.457,1.275,2.893,0c0.306-0.894,0.509-1.747,0.654-2.682
			c-0.482,0.367-0.964,0.734-1.446,1.102c5.279,0.171,10.273,1.6,15.309,3.074c0.133-0.982,0.266-1.964,0.398-2.946
			c-2.405,0.09-4.792,0.376-7.199,0.447c-1.965,0.059-1.896,2.818,0,3c4.927,0.471,9.782,1.34,14.655,2.18
			c0.133-0.982,0.266-1.964,0.398-2.946c-7.224-0.519-14.374-1.715-21.598-2.233c-1.931-0.139-1.918,2.862,0,3
			c7.224,0.519,14.375,1.715,21.598,2.233c1.679,0.12,2.066-2.659,0.398-2.946c-5.139-0.886-10.258-1.79-15.452-2.287c0,1,0,2,0,3
			c2.407-0.071,4.794-0.357,7.199-0.447c1.688-0.062,2.049-2.463,0.398-2.946c-5.292-1.551-10.564-3.002-16.105-3.182
			c-0.607-0.02-1.348,0.467-1.446,1.102c-0.145,0.934-0.349,1.787-0.654,2.682c0.964,0,1.928,0,2.893,0
			c-0.178-1.06-0.477-2.069-0.656-3.128C144.542,279.419,141.651,280.229,141.97,282.121L141.97,282.121z"/>
            </g>
        </g>
        <g>
            <g>
                <path d="M75.542,285.744c0-1.191,0-2.384,0-3.575c-0.932,0.252-1.863,0.505-2.795,0.757c2.208,4.769,5.738,6.778,10.561,4.113
			c1.5-0.829,0.476-3.196-1.156-2.741c-8.032,2.24-16.183,4.015-24.215,6.255c-1.582,0.441-1.323,3.14,0.399,2.946
			c8.329-0.934,16.553-2.569,24.871-3.574c0.982-0.118,2.06-1.236,1.295-2.257c-1.984-2.646-4.083-5.179-6.314-7.62
			c-2.65-2.899-6.501-1.442-8.739-5.338c-0.565,0.734-1.129,1.469-1.694,2.203c7.243,2.976,13.929,6.932,20.586,11.019
			c1.653,1.016,3.159-1.58,1.514-2.59c-6.889-4.229-13.811-8.243-21.302-11.321c-1.283-0.527-2.29,1.166-1.694,2.203
			c1.116,1.943,2.68,3.721,4.885,4.45c1.287,0.427,3.315,0.438,4.323,1.495c2.1,2.201,4.022,4.581,5.845,7.013
			c0.432-0.752,0.864-1.505,1.295-2.257c-8.318,1.005-16.543,2.641-24.871,3.574c0.133,0.982,0.266,1.964,0.399,2.946
			c8.032-2.24,16.183-4.015,24.215-6.255c-0.385-0.914-0.771-1.827-1.156-2.741c-4.121,2.277-5.408-0.776-6.455-3.037
			c-0.65-1.404-2.795-0.651-2.795,0.757c0,1.191,0,2.384,0,3.575C72.542,287.679,75.542,287.679,75.542,285.744L75.542,285.744z"/>
            </g>
        </g>
        <g>
            <g>
                <path d="M139.299,274.126c0.167,3.104,0.923,5.42,2.822,7.906c0.684-0.684,1.368-1.368,2.053-2.052
			c-3.686-2.104-7.269-4.206-10.168-7.361c-0.354,0.854-0.707,1.707-1.061,2.561c5.665,0.579,11.197,3.24,16.976,2.426
			c6.017-0.848,10.744-4.524,15.85-7.547c1.665-0.985,0.175-3.539-1.514-2.59c-7.598,4.271-15.497,8.058-21.902,14.086
			c-0.958,0.9-0.225,2.574,1.061,2.561c4.796-0.053,9.568-0.394,14.359,0.001c5.566,0.459,9.689,3.778,14.694,5.755
			c1.801,0.712,2.575-2.19,0.797-2.893c-4.749-1.875-8.386-4.627-13.513-5.602c-5.34-1.017-10.947-0.321-16.337-0.262
			c0.354,0.854,0.707,1.707,1.061,2.561c6.21-5.844,13.932-9.478,21.294-13.617c-0.505-0.863-1.009-1.727-1.514-2.59
			c-5.272,3.12-10.033,6.949-16.39,7.275c-4.975,0.255-9.98-2.06-14.923-2.564c-1.393-0.143-1.862,1.688-1.061,2.561
			c3.074,3.346,6.857,5.594,10.774,7.83c1.208,0.69,3.013-0.794,2.053-2.052c-1.562-2.045-2.272-3.782-2.413-6.393
			C142.196,272.202,139.195,272.192,139.299,274.126L139.299,274.126z"/>
            </g>
        </g>
        <g>
            <g>
                <path d="M160.57,45.748c0.769-4.434,3.324-8.018,5.739-11.707c1.063-1.624-1.535-3.125-2.59-1.514
			c-2.552,3.896-5.23,7.743-6.042,12.422C157.35,46.841,160.24,47.651,160.57,45.748L160.57,45.748z"/>
            </g>
        </g>
        <g>
            <g>
                <path d="M166.075,46.856c9.03-9.352,19.393-17.111,30.456-23.894c1.646-1.009,0.141-3.605-1.514-2.591
			c-11.274,6.913-21.861,14.833-31.063,24.364C162.61,46.126,164.729,48.25,166.075,46.856L166.075,46.856z"/>
            </g>
        </g>
    </symbol>

    <symbol id="dashboard" viewBox="0 0 300 300">
        <line fill="none" stroke-width="5" stroke-linecap="round" stroke-miterlimit="10" x1="16.5" y1="33" x2="16.5"
              y2="255"/>
        <line fill="none" stroke-width="5" stroke-linecap="round" stroke-miterlimit="10" x1="8" y1="246.5" x2="283"
              y2="246.5"/>
        <rect x="16" y="192" width="37" height="55"/>
        <g>
            <g>
                <path d="M10.514,202.091c32.943-20.011,57.331-50.679,88.5-73c3.116-2.231,0.125-7.438-3.028-5.181
			c-31.16,22.315-55.593,53.011-88.5,73C4.185,198.915,7.198,204.104,10.514,202.091L10.514,202.091z"/>
            </g>
        </g>
        <g>
            <g>
                <path d="M91.107,125.797c6.119,17.5,19.792,32.974,32.772,45.824c2.751,2.724,6.995-1.518,4.242-4.242
			c-12.216-12.094-25.462-26.686-31.228-43.176C95.625,120.575,89.827,122.135,91.107,125.797L91.107,125.797z"/>
            </g>
        </g>
        <g>
            <g>
                <path d="M111.014,174.591c29.829-22.305,58.752-45.772,87.207-69.799c26.443-22.33,53.281-44.605,74.37-72.277
			c2.346-3.079-2.869-6.062-5.182-3.028c-20.741,27.217-47.446,49.092-73.432,71.063c-28.045,23.713-56.575,46.864-85.992,68.86
			C104.926,171.697,107.912,176.91,111.014,174.591L111.014,174.591z"/>
            </g>
        </g>
        <g>
            <g>
                <path d="M269.743,30.205c-3.37,1.487-6.442,3.463-9.5,5.5c-1.602,1.067-0.102,3.667,1.514,2.591c3.058-2.038,6.13-4.013,9.5-5.5
			C273.023,32.016,271.496,29.432,269.743,30.205L269.743,30.205z"/>
            </g>
        </g>
        <g>
            <g>
                <path d="M268.5,31.5c-0.062,2.785-0.906,5.343-2.295,7.743c-0.972,1.677,1.622,3.187,2.59,1.514
			c1.65-2.851,2.633-5.952,2.705-9.257C271.543,29.564,268.542,29.568,268.5,31.5L268.5,31.5z"/>
            </g>
        </g>
        <rect x="69" y="154" width="37" height="93"/>
        <rect x="122" y="176" width="37" height="70"/>
        <rect x="176" y="131" width="37" height="115"/>
        <rect x="232" y="87" width="37" height="159"/>
    </symbol>

    <symbol id="arrows" viewBox="0 0 469.23 469.231">
        <path d="M43.746,393.499c11.939-7.564,64.621-57.283,76.334-72.1c2.392-11.846,2.918-23.803,7.418-37.051
	c4.389-4.389,9.39-9.532,14.336-14.337c17.74-17.176,34.746-34.887,53.402-51.144c7.223-6.236,13.979-13.133,20.426-20.145
	c21.984-24.243,45.31-47.144,68.564-70.116c3.512-3.512,7.473-6.767,11.266-9.996c1.896-1.615,3.792-3.229,6.18-2.793
	c2.089,2.284,1.859,5.761,1.727,9.14c-0.283,3.811-1.002,7.775-1.454,11.614c-0.202,3.307-2.689,7.063-1.281,10.03
	c1.502,0.332,2.645-0.67,3.479-1.786c9.842-13.37,29.859-53.426,33.281-66.584c-0.854-1.829-2.318-2.904-4.699-2.358
	c-2.211,0.518-4.379,1.275-6.505,2.271c-18.982,9.105-37.52,20.021-55.871,31.317c-1.186,0.763-2.004,2.287-0.847,3.247
	c18.976-3.454,18.976-3.454,25.371-0.959c0.279,1.839-1.043,3.442-2.479,4.738c-4.653,4.513-9.335,9.195-14.201,13.495
	c-14.332,12.78-27.298,26.733-40.331,40.614c-16.184,17.171-32.535,34.369-49.916,50.339c-14.121,12.992-27.792,26.239-41.39,39.555
	c-5.046,4.905-10.021,9.878-14.993,14.852c-2.828,2.829-5.613,5.896-9.721,8.026c-10.957,3.479-21.754,3.41-32.138,4.34
	c-1.577,1.152-2.542,1.553-3.225,2.236c-19.425,19-38.354,38.496-58.739,56.34c-1.533,1.393-2.07,3.197-0.863,5.379
	c8.982,1.18,20.326-5.227,29.578-3.189c-0.33,1.035-0.241,1.512-0.464,1.875c-2.226,2.648-4.524,5.23-6.776,8.047
	c-1.002,1.143-1.289,2.418-0.204,3.309c2.636-0.096,4.572-4.008,7.438-3.486c1.016,3.359-1.583,6.805-3.104,10.16
	c-3.148,7.383-6.705,14.75-10.022,22.158C42.416,391.585,42.342,393.071,43.746,393.499z M36.114,346.661
	c0.278-2.256,0.132-3.377,0.69-3.795c17.321-16.615,34.645-33.232,51.771-49.654c5.046-2.365,8.916-2.004,12.559-0.705
	c1.246-0.117,11.238-3.195,12.08-0.791c-2.535,2.535-14.875,4.434-16.756,6.455c1.922,2.311,5.678-0.174,7.787,0.961
	c1.255,0.863,0.588,1.953-1.025,3.85c-5.198,2.799-11.346-0.229-17.109,6.102c1.229,3.568,6.873-1.514,7.963,1.914
	c-0.573,2.551-2.584,3.855-5.055,5.479c-5.885,0.945-12.008-0.693-18.83,4.578c2.384,4.529,8.82-1.908,11.032,1.668
	c-2.02,4.418-2.02,4.418-7.444,9.137c-5.568,2.039-10.19-1.803-16.568,2.738c1.678,3.826,7.461,0.443,9.346,3.498
	c0.067,1.625-1.158,3.133-3.684,5.094C54.861,342.591,45.439,344.675,36.114,346.661z M53.367,376.399
	c4.297-9.941,8.691-19.98,13.157-29.949c0.347-0.629,1.479-1.057,2.499-1.793c3.467,2.883-1.801,8.148-0.475,11.621
	c2.096,0.729,3.107-0.99,3.953-2.682c2.862-6.107,3.355-12.248,4.625-17.609c1.857-3.408,3.836-5.527,6.729-6.729
	c0.594,0.396,1.617,0.641,1.537,1.145c-0.842,4.229-1.854,8.486-2.863,12.742c3.459-0.637,4.579-3.027,5.238-5.1
	c1.9-5.707,3.391-11.432,5.121-17.113c0.687-2.24,0.687-2.24,6.074-6.215c1.372,6.248-3.466,12.92-4.533,19.066
	c2.057,1.473,3.193-0.512,4.081-1.963c3.038-5.156,4.042-10.395,5.383-15.686c1.026-3.848,0.833-7.748,4.397-11.594
	c4.579,1.066-1.072,7.703,3.215,9.062c3.562-3.846,6.165-18.018,7.005-18.154c0.841-0.135-0.099,4.193-0.217,5.439
	c-0.337,6.686-1.035,13.594-2.829,20.186c-11.896,14.436-42.32,43.309-61.238,58.135C52.894,378.849,52.843,377.63,53.367,376.399z"
        />
        <path d="M153.337,393.499c11.939-7.564,64.621-57.283,76.334-72.1c2.391-11.848,2.918-23.803,7.418-37.051
	c4.389-4.39,9.389-9.533,14.336-14.337c17.74-17.176,34.746-34.887,53.402-51.144c7.223-6.236,13.979-13.133,20.426-20.145
	c21.984-24.243,45.309-47.144,68.564-70.116c3.512-3.512,7.473-6.767,11.266-9.996c1.896-1.615,3.791-3.229,6.18-2.793
	c2.088,2.284,1.859,5.761,1.727,9.14c-0.283,3.811-1.002,7.775-1.455,11.614c-0.201,3.307-2.689,7.063-1.281,10.03
	c1.502,0.332,2.645-0.67,3.48-1.786c9.842-13.37,29.859-53.426,33.281-66.584c-0.854-1.829-2.318-2.904-4.699-2.358
	c-2.211,0.518-4.379,1.275-6.506,2.271c-18.982,9.105-37.52,20.021-55.871,31.317c-1.186,0.763-2.004,2.287-0.846,3.247
	c18.975-3.454,18.975-3.454,25.371-0.959c0.279,1.839-1.043,3.442-2.48,4.738c-4.652,4.513-9.334,9.195-14.201,13.495
	c-14.332,12.78-27.297,26.733-40.33,40.614c-16.184,17.171-32.535,34.369-49.916,50.339c-14.121,12.992-27.793,26.238-41.391,39.555
	c-5.045,4.906-10.02,9.879-14.992,14.852c-2.828,2.83-5.613,5.896-9.721,8.027c-10.958,3.479-21.754,3.41-32.138,4.338
	c-1.577,1.154-2.542,1.555-3.225,2.236c-19.425,19.002-38.354,38.496-58.739,56.342c-1.533,1.393-2.07,3.197-0.863,5.379
	c8.982,1.18,20.326-5.227,29.578-3.189c-0.33,1.035-0.241,1.512-0.464,1.875c-2.226,2.648-4.524,5.23-6.776,8.047
	c-1.002,1.143-1.289,2.418-0.204,3.307c2.636-0.094,4.572-4.008,7.438-3.486c1.016,3.359-1.583,6.807-3.104,10.16
	c-3.148,7.385-6.705,14.75-10.022,22.16C152.007,391.585,151.933,393.071,153.337,393.499z M145.706,346.661
	c0.278-2.256,0.132-3.377,0.69-3.795c17.321-16.617,34.645-33.232,51.771-49.654c5.046-2.365,8.916-2.004,12.559-0.705
	c1.246-0.117,11.238-3.195,12.08-0.791c-2.535,2.535-14.875,4.432-16.756,6.455c1.922,2.311,5.678-0.174,7.787,0.961
	c1.255,0.861,0.588,1.953-1.025,3.85c-5.198,2.797-11.346-0.229-17.109,6.102c1.229,3.568,6.873-1.514,7.963,1.914
	c-0.573,2.549-2.584,3.854-5.055,5.479c-5.885,0.945-12.008-0.693-18.83,4.578c2.384,4.529,8.82-1.908,11.032,1.668
	c-2.02,4.418-2.02,4.418-7.444,9.137c-5.568,2.039-10.19-1.805-16.568,2.738c1.678,3.826,7.461,0.441,9.346,3.498
	c0.067,1.625-1.158,3.133-3.684,5.092C164.453,342.591,155.031,344.673,145.706,346.661z M162.958,376.399
	c4.297-9.941,8.691-19.98,13.157-29.951c0.347-0.627,1.479-1.055,2.499-1.791c3.467,2.881-1.801,8.148-0.475,11.621
	c2.096,0.727,3.107-0.99,3.953-2.682c2.862-6.109,3.355-12.248,4.625-17.609c1.857-3.408,3.836-5.527,6.729-6.729
	c0.594,0.396,1.617,0.641,1.537,1.145c-0.842,4.229-1.854,8.486-2.863,12.742c3.459-0.637,4.579-3.027,5.238-5.1
	c1.9-5.709,3.391-11.434,5.121-17.115c0.687-2.238,0.687-2.238,6.074-6.213c1.372,6.246-3.466,12.918-4.533,19.066
	c2.057,1.473,3.193-0.512,4.081-1.965c3.038-5.154,4.042-10.393,5.383-15.684c1.026-3.85,0.833-7.748,4.397-11.594
	c4.579,1.064-1.072,7.703,3.215,9.062c3.562-3.846,6.165-18.02,7.004-18.154c0.842-0.135-0.098,4.191-0.217,5.438
	c-0.336,6.688-1.035,13.596-2.829,20.188c-11.896,14.436-42.32,43.307-61.238,58.135
	C162.485,378.849,162.434,377.628,162.958,376.399z"/>
    </symbol>

    <symbol id="bell" viewBox="0 0 448 512">
        <path
                d="M224 512c35.32 0 63.97-28.65 63.97-64H160.03c0 35.35 28.65 64 63.97 64zm215.39-149.71c-19.32-20.76-55.47-51.99-55.47-154.29 0-77.7-54.48-139.9-127.94-155.16V32c0-17.67-14.32-32-31.98-32s-31.98 14.33-31.98 32v20.84C118.56 68.1 64.08 130.3 64.08 208c0 102.3-36.15 133.53-55.47 154.29-6 6.45-8.66 14.16-8.61 21.71.11 16.4 12.98 32 32.1 32h383.8c19.12 0 32-15.6 32.1-32 .05-7.55-2.61-15.27-8.61-21.71z"/>
    </symbol>
    <symbol id="brush" viewBox="0 0 300 300">
        <path d="M229.527,26.481H70.472c-8.783,0-15.905,7.123-15.905,15.905v111.338h190.865V42.386
	C245.432,33.604,238.309,26.481,229.527,26.481z M54.567,185.535c0,17.57,14.245,31.811,31.811,31.811h31.811v31.811
	c0,17.572,14.246,31.812,31.811,31.812c17.565,0,31.811-14.24,31.811-31.812v-31.811h31.811c17.566,0,31.811-14.24,31.811-31.811
	V169.63H54.567V185.535z M150,237.229c6.586,0,11.929,5.338,11.929,11.928c0,6.586-5.343,11.93-11.929,11.93
	c-6.586,0-11.929-5.344-11.929-11.93C138.07,242.566,143.414,237.229,150,237.229z"/>
    </symbol>
    <symbol id="apps" viewBox="0 0 300 300">
        <path d="M144.682,92.688l4.503-7.769c2.771-4.849,8.956-6.482,13.806-3.711c4.849,2.771,6.482,8.956,3.712,13.806l-43.298,74.967
	h31.323c10.145,0,15.834,11.924,11.431,20.188H74.367c-5.591,0-10.094-4.504-10.094-10.095c0-5.592,4.503-10.094,10.094-10.094
	h25.731l32.955-57.104l-10.292-17.863c-2.771-4.85-1.138-10.985,3.711-13.806c4.849-2.771,10.985-1.138,13.805,3.711L144.682,92.688
	L144.682,92.688z M105.739,200.56l-9.698,16.824c-2.771,4.85-8.957,6.481-13.806,3.711c-4.849-2.771-6.482-8.956-3.711-13.806
	l7.225-12.47C93.863,192.296,100.494,194.226,105.739,200.56z M189.314,170.028h26.275c5.591,0,10.095,4.504,10.095,10.095
	c0,5.593-4.504,10.095-10.095,10.095h-14.598l9.847,17.071c2.771,4.85,1.139,10.985-3.711,13.806
	c-4.85,2.771-10.984,1.139-13.806-3.711c-16.576-28.75-29.046-50.275-37.309-64.624c-8.462-14.598-2.426-29.244,3.562-34.193
	C166.206,129.948,176.103,147.119,189.314,170.028L189.314,170.028z M144.731,36.822c-67.791,0-122.716,54.926-122.716,122.717
	c0,67.79,54.926,122.716,122.716,122.716s122.716-54.926,122.716-122.716C267.447,91.748,212.521,36.822,144.731,36.822z
	 M251.613,159.539c0,58.735-47.553,106.882-106.882,106.882c-58.735,0-106.882-47.553-106.882-106.882
	c0-58.736,47.553-106.883,106.882-106.883C203.467,52.656,251.613,100.209,251.613,159.539z"/>
    </symbol>
    <symbol id="columns" viewBox="0 0 300 300">
        <rect x="31.5" y="45.5" stroke-miterlimit="10" width="69" height="202"/>
        <rect x="114.5" y="45.5" stroke-miterlimit="10" width="69" height="202"/>
        <rect x="198.5" y="45.5" stroke-miterlimit="10" width="69" height="202"/>
    </symbol>
    <symbol id="administration" viewBox="0 0 300 300">
        <g>

            <line fill="none" stroke-width="12" stroke-linecap="round" stroke-linejoin="round" stroke-miterlimit="10"
                  x1="165.624" y1="157.078" x2="152.852" y2="149.945"/>

            <line fill="none" stroke-width="12" stroke-linecap="round" stroke-linejoin="round" stroke-miterlimit="10"
                  x1="256.848" y1="208.021" x2="243.676" y2="200.665"/>

            <line fill="none" stroke-width="12" stroke-linecap="round" stroke-linejoin="round" stroke-miterlimit="10"
                  x1="228.459" y1="224.625" x2="227.203" y2="210.013"/>

            <line fill="none" stroke-width="12" stroke-linecap="round" stroke-linejoin="round" stroke-miterlimit="10"
                  x1="195.332" y1="224.443" x2="196.219" y2="209.47"/>

            <line fill="none" stroke-width="12" stroke-linecap="round" stroke-linejoin="round" stroke-miterlimit="10"
                  x1="166.028" y1="205.34" x2="180.636" y2="200.058"/>

            <line fill="none" stroke-width="12" stroke-linecap="round" stroke-linejoin="round" stroke-miterlimit="10"
                  x1="153.154" y1="181.218" x2="165.624" y2="172.534"/>

            <line fill="none" stroke-width="12" stroke-linecap="round" stroke-linejoin="round" stroke-miterlimit="10"
                  x1="180.258" y1="129.952" x2="167.891" y2="122.599"/>

            <line fill="none" stroke-width="12" stroke-linecap="round" stroke-linejoin="round" stroke-miterlimit="10"
                  x1="196" y1="105.612" x2="196.318" y2="120.161"/>

            <line fill="none" stroke-width="12" stroke-linecap="round" stroke-linejoin="round" stroke-miterlimit="10"
                  x1="228.666" y1="105.217" x2="226.499" y2="119.864"/>

            <line fill="none" stroke-width="12" stroke-linecap="round" stroke-linejoin="round" stroke-miterlimit="10"
                  x1="258.626" y1="122.599" x2="244.43" y2="129.666"/>

            <line fill="none" stroke-width="12" stroke-linecap="round" stroke-linejoin="round" stroke-miterlimit="10"
                  x1="272.127" y1="148.602" x2="258.885" y2="154.553"/>

            <line fill="none" stroke-width="12" stroke-linecap="round" stroke-linejoin="round" stroke-miterlimit="10"
                  x1="272.127" y1="181.408" x2="258.831" y2="175.354"/>
            <path fill="none" stroke-width="12" stroke-linecap="round" stroke-linejoin="round" stroke-miterlimit="10"
                  d="
		M272.127,181.408c-1.256,4.562-3.023,8.912-5.236,12.986"/>
            <path fill="none" stroke-width="12" stroke-linecap="round" stroke-linejoin="round" stroke-miterlimit="10"
                  d="
		M258.626,122.599c7.6,7.781,10.85,15.083,13.501,26.003"/>
            <path fill="none" stroke-width="12" stroke-linecap="round" stroke-linejoin="round" stroke-miterlimit="10"
                  d="
		M196,105.612c5.302-1.484,10.892-2.278,16.667-2.278c5.239,0,10.326,0.653,15.183,1.883"/>
            <path fill="none" stroke-width="12" stroke-linecap="round" stroke-linejoin="round" stroke-miterlimit="10"
                  d="
		M152.852,149.945c2.613-10.421,7.88-19.789,15.039-27.346"/>
            <path fill="none" stroke-width="12" stroke-linecap="round" stroke-linejoin="round" stroke-miterlimit="10"
                  d="
		M166.028,205.34c-6.753-7.222-10.204-14.301-12.874-24.122"/>
            <path fill="none" stroke-width="12" stroke-linecap="round" stroke-linejoin="round" stroke-miterlimit="10"
                  d="
		M228.459,224.625c-5.04,1.332-10.333,2.042-15.792,2.042c-5.703,0-11.226-0.774-16.468-2.224"/>
            <path fill="none" stroke-width="12" stroke-linecap="round" stroke-linejoin="round" stroke-miterlimit="10"
                  d="
		M266.891,194.395c-2.717,5-6.104,9.582-10.043,13.626"/>
            <path fill="none" stroke-width="12" stroke-linecap="round" stroke-linejoin="round" stroke-miterlimit="10"
                  d="
		M196.219,209.47c-6.238-2.276-10.88-4.908-15.583-9.412"/>
            <path fill="none" stroke-width="12" stroke-linecap="round" stroke-linejoin="round" stroke-miterlimit="10"
                  d="
		M243.68,200.668c-4.755,4.141-10.342,7.35-16.477,9.345"/>
            <path fill="none" stroke-width="12" stroke-linecap="round" stroke-linejoin="round" stroke-miterlimit="10"
                  d="
		M258.885,154.553c0.73,3.311,1.115,6.75,1.115,10.28c0,3.615-0.404,7.136-1.169,10.521"/>
            <path fill="none" stroke-width="12" stroke-linecap="round" stroke-linejoin="round" stroke-miterlimit="10"
                  d="
		M227.838,119.864c6.209,2.117,11.84,5.484,16.592,9.802"/>
            <path fill="none" stroke-width="12" stroke-linecap="round" stroke-linejoin="round" stroke-miterlimit="10"
                  d="
		M180.258,129.952c4.603-4.256,10.049-7.613,16.061-9.791"/>
            <path fill="none" stroke-width="12" stroke-linecap="round" stroke-linejoin="round" stroke-miterlimit="10"
                  d="
		M165.624,172.534c-0.668-3.173-0.624-4.329-0.624-7.701c0-2.639,0.215-5.228,0.629-7.749"/>
        </g>
        <path fill="none" stroke-width="12" stroke-linejoin="round" stroke-miterlimit="10" d="M138.356,138.514
	C120.97,134.532,108,118.968,108,100.375c0-21.608,17.517-39.125,39.125-39.125c18.646,0,34.246,13.044,38.172,30.504"/>
        <path fill="none" stroke-width="12" stroke-linejoin="round" stroke-miterlimit="10" d="M174,231
	c0,0-78.406,0-85,0c-14.5,0-14-9.613-14-13.682S75,200,75,200c0-37,33-39.5,33-39.5c14.75-1.25,26.5,4.309,26.5,4.309"/>
        <path fill="none" stroke-width="12" stroke-linecap="round" stroke-linejoin="round" stroke-miterlimit="10" d="
	M22.25,181.131c0-15.95,16.174-28.881,36.125-28.881c6.683,0,12.942,1.45,18.312,3.979"/>
        <circle fill="none" stroke-width="12" stroke-linecap="round" stroke-linejoin="round" stroke-miterlimit="10"
                cx="56.125" cy="99.875" r="26.375"/>
        <circle fill="none" stroke-width="12" stroke-linecap="round" stroke-linejoin="round" stroke-miterlimit="10"
                cx="213.041" cy="165.311" r="19.709"/>
    </symbol>

    <symbol id="show" viewBox="0 0 576 512">
        <path fill="currentColor"
              d="M572.52 241.4C518.29 135.59 410.93 64 288 64S57.68 135.64 3.48 241.41a32.35 32.35 0 0 0 0 29.19C57.71 376.41 165.07 448 288 448s230.32-71.64 284.52-177.41a32.35 32.35 0 0 0 0-29.19zM288 400a144 144 0 1 1 144-144 143.93 143.93 0 0 1-144 144zm0-240a95.31 95.31 0 0 0-25.31 3.79 47.85 47.85 0 0 1-66.9 66.9A95.78 95.78 0 1 0 288 160z"/>
    </symbol>
    <symbol id="hide" viewBox="0 0 640 512">
        <path d="M320 400c-75.85 0-137.25-58.71-142.9-133.11L72.2 185.82c-13.79 17.3-26.48 35.59-36.72 55.59a32.35 32.35 0 0 0 0 29.19C89.71 376.41 197.07 448 320 448c26.91 0 52.87-4 77.89-10.46L346 397.39a144.13 144.13 0 0 1-26 2.61zm313.82 58.1l-110.55-85.44a331.25 331.25 0 0 0 81.25-102.07 32.35 32.35 0 0 0 0-29.19C550.29 135.59 442.93 64 320 64a308.15 308.15 0 0 0-147.32 37.7L45.46 3.37A16 16 0 0 0 23 6.18L3.37 31.45A16 16 0 0 0 6.18 53.9l588.36 454.73a16 16 0 0 0 22.46-2.81l19.64-25.27a16 16 0 0 0-2.82-22.45zm-183.72-142l-39.3-30.38A94.75 94.75 0 0 0 416 256a94.76 94.76 0 0 0-121.31-92.21A47.65 47.65 0 0 1 304 192a46.64 46.64 0 0 1-1.54 10l-73.61-56.89A142.31 142.31 0 0 1 320 112a143.92 143.92 0 0 1 144 144c0 21.63-5.29 41.79-13.9 60.11z"/>
    </symbol>
    <symbol id="gear" viewBox="0 0 300 300">
        <g>
            <path fill="none" stroke-width="14" stroke-linecap="round" stroke-linejoin="round" stroke-miterlimit="10"
                  d="
		M121.999,227.422c-9.427-3.287-18.075-8.236-25.591-14.496l-0.002-0.002l-23.943,13.638l0.073-0.089
		C58.942,212.885,49,195.719,44,176.509v-0.005l23.731-13.587c-0.714-4.366-1.074-8.89-1.074-13.458
		c0-4.917,0.441-9.458,1.267-14.458h0.002c0,0-23.611-13.592-23.61-13.592c4.985-18.741,14.847-35.474,28.143-48.799l0.004,0.013
		l23.673,13.682l-0.003-0.001C103.713,79.933,112,74.905,122,71.579V72V44l0.044,0.162c8.771-2.28,17.971-3.493,27.455-3.493
		c9.487,0,18.69,1.214,27.464,3.495L177,44v28v-0.188c9.154,3.28,18,8.132,25,14.23v0.001l24-13.865v-0.001
		c14,13.668,24.001,31.003,28.939,50.424l0.019-0.001c0,0-24.324,13.862-24.324,13.862c0.674,4.247,1.03,8.658,1.03,13.095
		c0,4.908-0.424,9.443-1.245,14.443h-0.003l24.563,14.135l-0.41-0.127c-5.045,18.657-14.927,35.314-28.218,48.568
		c-0.001,0-24-13.866-24-13.866l0.137-0.249c-7.472,6.333-16.084,11.358-25.486,14.728L177,227v28l-0.027-0.163
		c-8.776,2.282-17.983,3.497-27.474,3.497c-9.486,0-18.689-1.214-27.462-3.494L122,255v-28"/>
        </g>
        <circle fill="none" stroke-width="14" stroke-linecap="round" stroke-linejoin="round" stroke-miterlimit="10"
                cx="149.344" cy="149.34" r="38"/>
    </symbol>
    <symbol id="add" viewBox="0 0 221 220">
        <line fill="none" stroke-width="18" stroke-linecap="round" stroke-miterlimit="10" x1="106" y1="180" x2="106"
              y2="30"/>
        <line fill="none" stroke-width="18" stroke-linecap="round" stroke-miterlimit="10" x1="30" y1="110" x2="180"
              y2="110"/>
    </symbol>
    <symbol id="chevron-right" viewBox="0 0 320 512">
        <path d="M285.476 272.971L91.132 467.314c-9.373 9.373-24.569 9.373-33.941 0l-22.667-22.667c-9.357-9.357-9.375-24.522-.04-33.901L188.505 256 34.484 101.255c-9.335-9.379-9.317-24.544.04-33.901l22.667-22.667c9.373-9.373 24.569-9.373 33.941 0L285.475 239.03c9.373 9.372 9.373 24.568.001 33.941z"/>
    </symbol>
    <symbol id="chevron-left" viewBox="0 0 320 512">
        <path d="M34.52 239.03L228.87 44.69c9.37-9.37 24.57-9.37 33.94 0l22.67 22.67c9.36 9.36 9.37 24.52.04 33.9L131.49 256l154.02 154.75c9.34 9.38 9.32 24.54-.04 33.9l-22.67 22.67c-9.37 9.37-24.57 9.37-33.94 0L34.52 272.97c-9.37-9.37-9.37-24.57 0-33.94z"/>
    </symbol>
    <symbol id="chevron-up" viewBox="0 0 448 512">
        <path d="M240.971 130.524l194.343 194.343c9.373 9.373 9.373 24.569 0 33.941l-22.667 22.667c-9.357 9.357-24.522 9.375-33.901.04L224 227.495 69.255 381.516c-9.379 9.335-24.544 9.317-33.901-.04l-22.667-22.667c-9.373-9.373-9.373-24.569 0-33.941L207.03 130.525c9.372-9.373 24.568-9.373 33.941-.001z"/>
    </symbol>
    <symbol id="chevron-down" viewBox="0 0 448 512">
        <path d="M207.029 381.476L12.686 187.132c-9.373-9.373-9.373-24.569 0-33.941l22.667-22.667c9.357-9.357 24.522-9.375 33.901-.04L224 284.505l154.745-154.021c9.379-9.335 24.544-9.317 33.901.04l22.667 22.667c9.373 9.373 9.373 24.569 0 33.941L240.971 381.476c-9.373 9.372-24.569 9.372-33.942 0z"/>
    </symbol>

    <symbol id="chart" viewBox="0 0 512 512">
        <path d="M332.8 320h38.4c6.4 0 12.8-6.4 12.8-12.8V172.8c0-6.4-6.4-12.8-12.8-12.8h-38.4c-6.4 0-12.8 6.4-12.8 12.8v134.4c0 6.4 6.4 12.8 12.8 12.8zm96 0h38.4c6.4 0 12.8-6.4 12.8-12.8V76.8c0-6.4-6.4-12.8-12.8-12.8h-38.4c-6.4 0-12.8 6.4-12.8 12.8v230.4c0 6.4 6.4 12.8 12.8 12.8zm-288 0h38.4c6.4 0 12.8-6.4 12.8-12.8v-70.4c0-6.4-6.4-12.8-12.8-12.8h-38.4c-6.4 0-12.8 6.4-12.8 12.8v70.4c0 6.4 6.4 12.8 12.8 12.8zm96 0h38.4c6.4 0 12.8-6.4 12.8-12.8V108.8c0-6.4-6.4-12.8-12.8-12.8h-38.4c-6.4 0-12.8 6.4-12.8 12.8v198.4c0 6.4 6.4 12.8 12.8 12.8zM496 384H64V80c0-8.84-7.16-16-16-16H16C7.16 64 0 71.16 0 80v336c0 17.67 14.33 32 32 32h464c8.84 0 16-7.16 16-16v-32c0-8.84-7.16-16-16-16z"/>
    </symbol>
    <symbol id="clipboard" viewBox="0 0 384 512">
        <path d="M336 64h-80c0-35.3-28.7-64-64-64s-64 28.7-64 64H48C21.5 64 0 85.5 0 112v352c0 26.5 21.5 48 48 48h288c26.5 0 48-21.5 48-48V112c0-26.5-21.5-48-48-48zM192 40c13.3 0 24 10.7 24 24s-10.7 24-24 24-24-10.7-24-24 10.7-24 24-24zm121.2 231.8l-143 141.8c-4.7 4.7-12.3 4.6-17-.1l-82.6-83.3c-4.7-4.7-4.6-12.3.1-17L99.1 285c4.7-4.7 12.3-4.6 17 .1l46 46.4 106-105.2c4.7-4.7 12.3-4.6 17 .1l28.2 28.4c4.7 4.8 4.6 12.3-.1 17z"/>
    </symbol>
    <symbol id="calendar" viewBox="0 0 448 512">
        <path d="M148 288h-40c-6.6 0-12-5.4-12-12v-40c0-6.6 5.4-12 12-12h40c6.6 0 12 5.4 12 12v40c0 6.6-5.4 12-12 12zm108-12v-40c0-6.6-5.4-12-12-12h-40c-6.6 0-12 5.4-12 12v40c0 6.6 5.4 12 12 12h40c6.6 0 12-5.4 12-12zm96 0v-40c0-6.6-5.4-12-12-12h-40c-6.6 0-12 5.4-12 12v40c0 6.6 5.4 12 12 12h40c6.6 0 12-5.4 12-12zm-96 96v-40c0-6.6-5.4-12-12-12h-40c-6.6 0-12 5.4-12 12v40c0 6.6 5.4 12 12 12h40c6.6 0 12-5.4 12-12zm-96 0v-40c0-6.6-5.4-12-12-12h-40c-6.6 0-12 5.4-12 12v40c0 6.6 5.4 12 12 12h40c6.6 0 12-5.4 12-12zm192 0v-40c0-6.6-5.4-12-12-12h-40c-6.6 0-12 5.4-12 12v40c0 6.6 5.4 12 12 12h40c6.6 0 12-5.4 12-12zm96-260v352c0 26.5-21.5 48-48 48H48c-26.5 0-48-21.5-48-48V112c0-26.5 21.5-48 48-48h48V12c0-6.6 5.4-12 12-12h40c6.6 0 12 5.4 12 12v52h128V12c0-6.6 5.4-12 12-12h40c6.6 0 12 5.4 12 12v52h48c26.5 0 48 21.5 48 48zm-48 346V160H48v298c0 3.3 2.7 6 6 6h340c3.3 0 6-2.7 6-6z"/>
    </symbol>
    <symbol id="deal" viewBox="0 0 640 512">
        <path d="M434.7 64h-85.9c-8 0-15.7 3-21.6 8.4l-98.3 90c-.1.1-.2.3-.3.4-16.6 15.6-16.3 40.5-2.1 56 12.7 13.9 39.4 17.6 56.1 2.7.1-.1.3-.1.4-.2l79.9-73.2c6.5-5.9 16.7-5.5 22.6 1 6 6.5 5.5 16.6-1 22.6l-26.1 23.9L504 313.8c2.9 2.4 5.5 5 7.9 7.7V128l-54.6-54.6c-5.9-6-14.1-9.4-22.6-9.4zM544 128.2v223.9c0 17.7 14.3 32 32 32h64V128.2h-96zm48 223.9c-8.8 0-16-7.2-16-16s7.2-16 16-16 16 7.2 16 16-7.2 16-16 16zM0 384h64c17.7 0 32-14.3 32-32V128.2H0V384zm48-63.9c8.8 0 16 7.2 16 16s-7.2 16-16 16-16-7.2-16-16c0-8.9 7.2-16 16-16zm435.9 18.6L334.6 217.5l-30 27.5c-29.7 27.1-75.2 24.5-101.7-4.4-26.9-29.4-24.8-74.9 4.4-101.7L289.1 64h-83.8c-8.5 0-16.6 3.4-22.6 9.4L128 128v223.9h18.3l90.5 81.9c27.4 22.3 67.7 18.1 90-9.3l.2-.2 17.9 15.5c15.9 13 39.4 10.5 52.3-5.4l31.4-38.6 5.4 4.4c13.7 11.1 33.9 9.1 45-4.7l9.5-11.7c11.2-13.8 9.1-33.9-4.6-45.1z"/>
    </symbol>
    <svg id="edit" viewBox="0 0 512 512">
        <path d="M497.9 142.1l-46.1 46.1c-4.7 4.7-12.3 4.7-17 0l-111-111c-4.7-4.7-4.7-12.3 0-17l46.1-46.1c18.7-18.7 49.1-18.7 67.9 0l60.1 60.1c18.8 18.7 18.8 49.1 0 67.9zM284.2 99.8L21.6 362.4.4 483.9c-2.9 16.4 11.4 30.6 27.8 27.8l121.5-21.3 262.6-262.6c4.7-4.7 4.7-12.3 0-17l-111-111c-4.8-4.7-12.4-4.7-17.1 0zM124.1 339.9c-5.5-5.5-5.5-14.3 0-19.8l154-154c5.5-5.5 14.3-5.5 19.8 0s5.5 14.3 0 19.8l-154 154c-5.5 5.5-14.3 5.5-19.8 0zM88 424h48v36.3l-64.5 11.3-31.1-31.1L51.7 376H88v48z"/>
    </svg>
    <symbol id="file" viewBox="0 0 384 512">
        <path d="M288 248v28c0 6.6-5.4 12-12 12H108c-6.6 0-12-5.4-12-12v-28c0-6.6 5.4-12 12-12h168c6.6 0 12 5.4 12 12zm-12 72H108c-6.6 0-12 5.4-12 12v28c0 6.6 5.4 12 12 12h168c6.6 0 12-5.4 12-12v-28c0-6.6-5.4-12-12-12zm108-188.1V464c0 26.5-21.5 48-48 48H48c-26.5 0-48-21.5-48-48V48C0 21.5 21.5 0 48 0h204.1C264.8 0 277 5.1 286 14.1L369.9 98c9 8.9 14.1 21.2 14.1 33.9zm-128-80V128h76.1L256 51.9zM336 464V176H232c-13.3 0-24-10.7-24-24V48H48v416h288z"/>
    </symbol>
    <symbol id="images" viewBox="0 0 576 512">
        <path d="M480 416v16c0 26.51-21.49 48-48 48H48c-26.51 0-48-21.49-48-48V176c0-26.51 21.49-48 48-48h16v208c0 44.112 35.888 80 80 80h336zm96-80V80c0-26.51-21.49-48-48-48H144c-26.51 0-48 21.49-48 48v256c0 26.51 21.49 48 48 48h384c26.51 0 48-21.49 48-48zM256 128c0 26.51-21.49 48-48 48s-48-21.49-48-48 21.49-48 48-48 48 21.49 48 48zm-96 144l55.515-55.515c4.686-4.686 12.284-4.686 16.971 0L272 256l135.515-135.515c4.686-4.686 12.284-4.686 16.971 0L512 208v112H160v-48z"/>
    </symbol>
    <symbol id="phone" viewBox="0 0 512 512">
        <path d="M493.4 24.6l-104-24c-11.3-2.6-22.9 3.3-27.5 13.9l-48 112c-4.2 9.8-1.4 21.3 6.9 28l60.6 49.6c-36 76.7-98.9 140.5-177.2 177.2l-49.6-60.6c-6.8-8.3-18.2-11.1-28-6.9l-112 48C3.9 366.5-2 378.1.6 389.4l24 104C27.1 504.2 36.7 512 48 512c256.1 0 464-207.5 464-464 0-11.2-7.7-20.9-18.6-23.4z"/>
    </symbol>
    <symbol id="companies" viewBox="0 0 501 500">
        <path fill="none" stroke-linecap="round" stroke-linejoin="round" stroke-miterlimit="10" stroke-width="20"
              d="M70.999 456.333V169.667s-1.333-14 12.667-13.333 47.333-.023 47.333-.023S144.332 157 144.332 169v150.667L276.999 255s11.333-10 11.333 9.333V319l130.666-63.334s12.668-6 13.334 8.667 0 192 0 192 3.333 12-12.667 12H84.332s-13.333 0-13.333-12z"/>
        <path d="M179.832 400.141c0 3.328-1.574 6.026-3.516 6.026h-37.969c-1.941 0-3.516-2.698-3.516-6.026v-32.947c0-3.327 1.574-6.025 3.516-6.025h37.969c1.941 0 3.516 2.698 3.516 6.025v32.947zm97.333 0c0 3.328-1.574 6.026-3.517 6.026H235.68c-1.941 0-3.516-2.698-3.516-6.026v-32.947c0-3.327 1.574-6.025 3.516-6.025h37.968c1.941 0 3.517 2.698 3.517 6.025v32.947zm94.667 0c0 3.328-1.574 6.026-3.516 6.026h-37.97c-1.94 0-3.516-2.698-3.516-6.026v-32.947c0-3.327 1.574-6.025 3.516-6.025h37.97c1.94 0 3.516 2.698 3.516 6.025v32.947z"/>
    </symbol>

    <symbol id="networking" viewBox="0 0 238 254">
        <line fill="none" stroke-width="18" stroke-linecap="round" stroke-miterlimit="10" x1="119" y1="46" x2="119"
              y2="213"/>
        <line fill="none" stroke-width="18" stroke-linecap="round" stroke-miterlimit="10" x1="87" y1="77" x2="87"
              y2="176"/>
        <line fill="none" stroke-width="18" stroke-linecap="round" stroke-miterlimit="10" x1="151" y1="78" x2="151"
              y2="177"/>
        <line fill="none" stroke-width="18" stroke-linecap="round" stroke-miterlimit="10" x1="56" y1="108" x2="56"
              y2="145"/>
        <line fill="none" stroke-width="18" stroke-linecap="round" stroke-miterlimit="10" x1="182" y1="109" x2="182"
              y2="146"/>
    </symbol>

    <symbol id="api" viewBox="0 0 238 254">
        <path fill="none" stroke="#ffffff" stroke-width="10" stroke-linecap="round" stroke-miterlimit="10"
              d="M86,161c0,0,24,0-40,0
	c-33.382,0-40.988-29.367-35-49.5c5.492-18.465,23.216-27.778,26-29C42.5,36.5,86,61,86,61c63.5-78.5,107.5,1.5,107,26
	c12.903-0.3,36.337,16.428,37.455,36.364C231.2,136.648,219.5,161,193,161c-40.697,0,0.697,0-40,0"/>
        <polyline fill="none" stroke="#ffffff" stroke-width="10" stroke-linecap="round" stroke-miterlimit="10" points="96,175
	119.604,154 141,175 "/>
        <line fill="none" stroke="#ffffff" stroke-width="10" stroke-linecap="round" stroke-miterlimit="10" x1="120"
              y1="214"
              x2="120" y2="154"/>
        <rect x="80" y="90" fill="none" width="85.5" height="37"/>
        <text transform="matrix(1 0 0 1 80 124.3672)" font-family="'Arial-BoldMT'" font-size="48">API</text>
    </symbol>

    <symbol id="monitoring" viewBox="0 0 238 254">
        <path fill="none" stroke-width="12" stroke-linecap="round" stroke-miterlimit="10" d="M65,177H23
	c-2.761,0-5-2.238-5-5V62c0-2.761,2.239-5,5-5h194c2.762,0,5,2.239,5,5v110c0,2.762-2.238,5-5,5h-45.755l0,0"/>
        <g>
            <polygon stroke-width="12" stroke-miterlimit="10" points="120.572,152.925 74.113,201 165.151,201 	"/>
        </g>
    </symbol>


    <symbol id="pie" viewBox="0 0 544 512">
        <path d="M527.79 288H290.5l158.03 158.03c6.04 6.04 15.98 6.53 22.19.68 38.7-36.46 65.32-85.61 73.13-140.86 1.34-9.46-6.51-17.85-16.06-17.85zm-15.83-64.8C503.72 103.74 408.26 8.28 288.8.04 279.68-.59 272 7.1 272 16.24V240h223.77c9.14 0 16.82-7.68 16.19-16.8zM224 288V50.71c0-9.55-8.39-17.4-17.84-16.06C86.99 51.49-4.1 155.6.14 280.37 4.5 408.51 114.83 513.59 243.03 511.98c50.4-.63 96.97-16.87 135.26-44.03 7.9-5.6 8.42-17.23 1.57-24.08L224 288z"/>
    </symbol>
    <symbol id="settings" viewBox="0 0 538.34 522.33">
        <path d="M317.794 334.815l-20.262-11.698a134.88 134.88 0 0 0 1.134-17.451c0-5.211-.309-10.351-.889-15.405l15.266-8.812s27.339-7.316-.905-54.902c-28.245-47.587-38.881-40.676-49.362-36.164-1.466.631-7.426 3.917-16.59 9.101a133.559 133.559 0 0 0-29.085-16.947c-.06-14.052-.101-22.535-.101-22.535s2.937-22-51.865-20.667C110.333 140.667 117 152.666 113 159.999v22.492a133.576 133.576 0 0 0-29.368 17.13l-14.674-8.472s-20.007-20.019-47.095 28.234c-27.089 48.257-15.785 54.013-6.638 60.832 1.316.981 7.448 4.679 16.97 10.284-.571 5.035-.859 10.1-.862 15.167 0 5.951.395 11.81 1.148 17.554-12.625 7.36-20.275 11.827-20.275 11.827s-20.521 8.457 8.035 55.25 35.615 35.021 43.965 34.816l21.061-12.159A133.514 133.514 0 0 0 113 428.84v18.492s-7.333 27.334 48 26.667 54.667-13.334 56-24.667c.197-1.672.335-9.15.429-20.679a133.48 133.48 0 0 0 27.388-15.762c13.042 7.457 20.979 11.988 20.979 11.988s17.585 13.543 43.829-34.582c26.247-48.125 12.521-48.353 8.169-55.482zm-44.739 67.067l-28.595-16.509c-13.641 13.714-30.854 23.868-50.126 28.958v33c-26 3.333-35.333 3.333-58 0v-33.36c-18.96-5.264-35.87-15.446-49.273-29.09l-29.447 17.001c-15.887-20.851-20.553-28.933-29-50.229l30.039-17.344a110.866 110.866 0 0 1-3.318-26.978 110.76 110.76 0 0 1 3.831-28.938l-30.33-17.512c9.114-22.451 14.87-33.754 29-50.229l30.656 17.7c13.168-12.925 29.551-22.582 47.843-27.66v-35.361c24-3.333 36.667-4 58 0v35c18.599 4.912 35.276 14.543 48.681 27.537l29.818-17.216c14.887 19.118 21.797 29.754 29 50.229l-29.177 16.846a110.795 110.795 0 0 1 4.011 29.604 110.868 110.868 0 0 1-3.482 27.651l28.869 16.668c-10.116 24.186-14.782 32.268-29 50.232z"/>
        <path d="M166.333 265.998c22.791 0 41.333 18.542 41.333 41.333s-18.542 41.333-41.333 41.333c-22.792 0-41.333-18.542-41.333-41.333s18.542-41.333 41.333-41.333m0-20c-33.874 0-61.333 27.46-61.333 61.333 0 33.874 27.46 61.333 61.333 61.333s61.333-27.459 61.333-61.333c0-33.873-27.46-61.333-61.333-61.333zM503.644 80.806h-15.551a89.63 89.63 0 0 0-5.146-10.424 90.647 90.647 0 0 0-5.633-8.572l5.856-10.147s13.311-13.299-18.768-31.307-35.906-10.494-40.439-4.413c-.633.852-2.972 4.723-6.524 10.754a88.667 88.667 0 0 0-22.377-.088c-4.705-8.07-7.55-12.941-7.55-12.941s-5.62-13.642-36.726 5.34c-31.107 18.982-23.28 23.676-23.146 29.226l7.478 12.948a88.669 88.669 0 0 0-11.213 19.624H312.64s-18.172-4.875-17.728 31.907c.445 36.784 8.865 36.34 16.396 37.228 1.083.128 5.845.218 13.188.28a89.586 89.586 0 0 0 11.04 18.742c-4.822 8.434-7.741 13.548-7.741 13.548s-9.002 11.692 22.99 29.137c31.991 17.445 32.143 8.325 36.881 5.43l8.082-14a89.06 89.06 0 0 0 21.249-.072l6.146 10.645s4.861 18.171 36.497-.601c31.635-18.778 27.039-25.848 24.038-32.816-.439-1.027-2.848-5.38-6.625-12.044a88.889 88.889 0 0 0 10.528-18.177c9.987-.044 16.061-.073 16.061-.073s14.625 1.951 13.739-34.477c-.883-36.43-8.862-31.999-13.737-34.657zm-3.464 53.481h-21.948c-3.294 12.429-9.832 23.996-19.232 33.331l10.969 18.999c-13.858 10.561-19.235 13.662-33.392 19.279l-11.089-19.207c-12.663 3.271-25.782 3.028-38.033-.37l-11.301 19.576c-16.076-6.724-21.449-9.825-33.393-19.279l11.529-19.969a73.713 73.713 0 0 1-10.875-14.427A73.694 73.694 0 0 1 336 134.286l-23.279-.001c-2.217-15.954-2.658-24.374 0-38.554h23.53c3.284-11.818 9.506-22.823 18.349-31.825l-11.754-20.357c12.71-9.895 19.779-14.488 33.392-19.278l11.636 20.15c12.34-3.355 25.141-3.353 37.176-.328l11.445-19.822c14.924 6.059 22.436 9.886 33.389 19.278l-11.199 19.396a73.556 73.556 0 0 1 12.15 15.711 73.659 73.659 0 0 1 7.188 17.076h22.157c2.215 17.283 2.215 23.486 0 38.555z"/>
        <circle cx="406.16" cy="115.49" r="25.31"/>
    </symbol>
    <symbol id="thumbtack" viewBox="0 0 384 512">
        <path d="M298.028 214.267L285.793 96H328c13.255 0 24-10.745 24-24V24c0-13.255-10.745-24-24-24H56C42.745 0 32 10.745 32 24v48c0 13.255 10.745 24 24 24h42.207L85.972 214.267C37.465 236.82 0 277.261 0 328c0 13.255 10.745 24 24 24h136v104.007c0 1.242.289 2.467.845 3.578l24 48c2.941 5.882 11.364 5.893 14.311 0l24-48a8.008 8.008 0 0 0 .845-3.578V352h136c13.255 0 24-10.745 24-24-.001-51.183-37.983-91.42-85.973-113.733z"/>
    </symbol>
    <symbol id="tasks" viewBox="0 0 501 500">
        <path fill="none" stroke-linecap="round" stroke-linejoin="round" stroke-miterlimit="10" stroke-width="20"
              d="M69 215.188l33 32.5s4.5 6 10.5 0 62-63.5 62-63.5M69 335.775l33 32.5s4.5 6 10.5 0 62-63.5 62-63.5m35-87.505H432M209.5 337.859H432M209.5 459.19H432"/>
        <circle cx="108.25" cy="456.94" r="25.75"/>
    </symbol>
    <symbol id="users" viewBox="0 0 501 500">
        <path d="M244.999 115.001c42.642 0 77.333 34.691 77.333 77.333s-34.691 77.333-77.333 77.333c-42.642 0-77.333-34.691-77.333-77.333s34.691-77.333 77.333-77.333m0-20c-53.755 0-97.333 43.577-97.333 97.333s43.577 97.333 97.333 97.333 97.333-43.577 97.333-97.333-43.578-97.333-97.333-97.333z"/>
        <path fill="none" stroke-miterlimit="10" stroke-width="20"
              d="M87 444.334v-30s2.002-89.367 89.333-88.666c18.199.146 28.915 12.971 66.84 12.666 16.353-.132 38.175-11.018 67.16-12.666 79.333-4.511 86.025 62.666 89.013 85.333 2.988 22.667 0 33.333 0 33.333s-.346 25.334-25.013 25.334H111.666S87 466.334 87 444.334z"/>
    </symbol>
    <symbol id="flag-lt" viewBox="0 0 141 81">
        <path fill="#F5B312" d="M0 0h141v27H0z"/>
        <path fill="#016742" d="M0 27h141v27H0z"/>
        <path fill="#BB262B" d="M0 54h141v27H0z"/>
    </symbol>
    <symbol id="flag-us" viewBox="0 0 141 81">
        <path fill="#FFF" d="M0 0h141v81H0z"/>
        <path fill="#B31C31"
              d="M0 76h141v5H0zM0 0h141v5H0zm0 37h141v5H0zm0 13h141v5H0zm0 13h141v5H0zm0-38h141v5H0zm0-13h141v5H0z"/>
        <path fill="#3A396E" d="M0 0h62v42H0z"/>
        <path fill="#FFF"
              d="M8.62 8.64l-1.31-.55-1.19.78.11-1.42-1.1-.9 1.38-.33.51-1.32.74 1.21 1.42.08-.92 1.08zm9 0l-1.31-.55-1.19.78.11-1.42-1.1-.9 1.38-.33.51-1.32.74 1.21 1.42.08-.92 1.08zm11 0l-1.31-.55-1.19.78.11-1.42-1.1-.9 1.38-.33.51-1.32.74 1.21 1.42.08-.92 1.08zm10 0l-1.31-.55-1.19.78.11-1.42-1.1-.9 1.38-.33.51-1.32.74 1.21 1.42.08-.92 1.08zm10 0l-1.31-.55-1.19.78.11-1.42-1.1-.9 1.38-.33.51-1.32.74 1.21 1.42.08-.92 1.08zm8 0l-1.31-.55-1.19.78.11-1.42-1.1-.9 1.38-.33.51-1.32.74 1.21 1.42.08-.92 1.08zm-48 10l-1.31-.55-1.19.78.11-1.42-1.1-.9 1.38-.33.51-1.32.74 1.21 1.42.08-.92 1.08zm9 0l-1.31-.55-1.19.78.11-1.42-1.1-.9 1.38-.33.51-1.32.74 1.21 1.42.08-.92 1.08zm11 0l-1.31-.55-1.19.78.11-1.42-1.1-.9 1.38-.33.51-1.32.74 1.21 1.42.08-.92 1.08zm10 0l-1.31-.55-1.19.78.11-1.42-1.1-.9 1.38-.33.51-1.32.74 1.21 1.42.08-.92 1.08zm10 0l-1.31-.55-1.19.78.11-1.42-1.1-.9 1.38-.33.51-1.32.74 1.21 1.42.08-.92 1.08zm8 0l-1.31-.55-1.19.78.11-1.42-1.1-.9 1.38-.33.51-1.32.74 1.21 1.42.08-.92 1.08zm-48 10l-1.31-.55-1.19.78.11-1.42-1.1-.9 1.38-.33.51-1.32.74 1.21 1.42.08-.92 1.08zm9 0l-1.31-.55-1.19.78.11-1.42-1.1-.9 1.38-.33.51-1.32.74 1.21 1.42.08-.92 1.08zm11 0l-1.31-.55-1.19.78.11-1.42-1.1-.9 1.38-.33.51-1.32.74 1.21 1.42.08-.92 1.08zm10 0l-1.31-.55-1.19.78.11-1.42-1.1-.9 1.38-.33.51-1.32.74 1.21 1.42.08-.92 1.08zm10 0l-1.31-.55-1.19.78.11-1.42-1.1-.9 1.38-.33.51-1.32.74 1.21 1.42.08-.92 1.08zm8 0l-1.31-.55-1.19.78.11-1.42-1.1-.9 1.38-.33.51-1.32.74 1.21 1.42.08-.92 1.08zm-48 9l-1.31-.55-1.19.78.11-1.42-1.1-.9 1.38-.33.51-1.32.74 1.21 1.42.08-.92 1.08zm9 0l-1.31-.55-1.19.78.11-1.42-1.1-.9 1.38-.33.51-1.32.74 1.21 1.42.08-.92 1.08zm11 0l-1.31-.55-1.19.78.11-1.42-1.1-.9 1.38-.33.51-1.32.74 1.21 1.42.08-.92 1.08zm10 0l-1.31-.55-1.19.78.11-1.42-1.1-.9 1.38-.33.51-1.32.74 1.21 1.42.08-.92 1.08zm10 0l-1.31-.55-1.19.78.11-1.42-1.1-.9 1.38-.33.51-1.32.74 1.21 1.42.08-.92 1.08zm8 0l-1.31-.55-1.19.78.11-1.42-1.1-.9 1.38-.33.51-1.32.74 1.21 1.42.08-.92 1.08zm-44-4l-1.31-.55-1.19.78.11-1.42-1.1-.9 1.38-.33.51-1.32.74 1.21 1.42.08-.92 1.08zm11 0l-1.31-.55-1.19.78.11-1.42-1.1-.9 1.38-.33.51-1.32.74 1.21 1.42.08-.92 1.08zm10 0l-1.31-.55-1.19.78.11-1.42-1.1-.9 1.38-.33.51-1.32.74 1.21 1.42.08-.92 1.08zm10 0l-1.31-.55-1.19.78.11-1.42-1.1-.9 1.38-.33.51-1.32.74 1.21 1.42.08-.92 1.08zm8 0l-1.31-.55-1.19.78.11-1.42-1.1-.9 1.38-.33.51-1.32.74 1.21 1.42.08-.92 1.08zm-40-10l-1.31-.55-1.19.78.11-1.42-1.1-.9 1.38-.33.51-1.32.74 1.21 1.42.08-.92 1.08zm11 0l-1.31-.55-1.19.78.11-1.42-1.1-.9 1.38-.33.51-1.32.74 1.21 1.42.08-.92 1.08zm10 0l-1.31-.55-1.19.78.11-1.42-1.1-.9 1.38-.33.51-1.32.74 1.21 1.42.08-.92 1.08zm10 0l-1.31-.55-1.19.78.11-1.42-1.1-.9 1.38-.33.51-1.32.74 1.21 1.42.08-.92 1.08zm8 0l-1.31-.55-1.19.78.11-1.42-1.1-.9 1.38-.33.51-1.32.74 1.21 1.42.08-.92 1.08zm-39-10l-1.31-.55-1.19.78.11-1.42-1.1-.9 1.38-.33.51-1.32.74 1.21 1.42.08-.92 1.08zm11 0l-1.31-.55-1.19.78.11-1.42-1.1-.9 1.38-.33.51-1.32.74 1.21 1.42.08-.92 1.08zm10 0l-1.31-.55-1.19.78.11-1.42-1.1-.9 1.38-.33.51-1.32.74 1.21 1.42.08-.92 1.08zm10 0l-1.31-.55-1.19.78.11-1.42-1.1-.9 1.38-.33.51-1.32.74 1.21 1.42.08-.92 1.08zm8 0l-1.31-.55-1.19.78.11-1.42-1.1-.9 1.38-.33.51-1.32.74 1.21 1.42.08-.92 1.08z"/>
    </symbol>

    <symbol id="bars" viewBox="0 0 300 300" >
        <line fill="none" stroke-width="16" stroke-linecap="round" stroke-miterlimit="10" x1="17" y1="95" x2="283" y2="95"/>
        <line fill="none" stroke-width="16" stroke-linecap="round" stroke-miterlimit="10" x1="17" y1="206" x2="283" y2="206"/>
        <line fill="none" stroke-width="16" stroke-linecap="round" stroke-miterlimit="10" x1="17" y1="150" x2="283" y2="150"/>
    </symbol>

    <symbol id="search-plus" viewBox="0 0 512 512">
        <path d="M304 192v32c0 6.6-5.4 12-12 12h-56v56c0 6.6-5.4 12-12 12h-32c-6.6 0-12-5.4-12-12v-56h-56c-6.6 0-12-5.4-12-12v-32c0-6.6 5.4-12 12-12h56v-56c0-6.6 5.4-12 12-12h32c6.6 0 12 5.4 12 12v56h56c6.6 0 12 5.4 12 12zm201 284.7L476.7 505c-9.4 9.4-24.6 9.4-33.9 0L343 405.3c-4.5-4.5-7-10.6-7-17V372c-35.3 27.6-79.7 44-128 44C93.1 416 0 322.9 0 208S93.1 0 208 0s208 93.1 208 208c0 48.3-16.4 92.7-44 128h16.3c6.4 0 12.5 2.5 17 7l99.7 99.7c9.3 9.4 9.3 24.6 0 34zM344 208c0-75.2-60.8-136-136-136S72 132.8 72 208s60.8 136 136 136 136-60.8 136-136z"/>
    </symbol>
    <symbol id="search" viewBox="0 0 512 512">
        <path d="M505 442.7L405.3 343c-4.5-4.5-10.6-7-17-7H372c27.6-35.3 44-79.7 44-128C416 93.1 322.9 0 208 0S0 93.1 0 208s93.1 208 208 208c48.3 0 92.7-16.4 128-44v16.3c0 6.4 2.5 12.5 7 17l99.7 99.7c9.4 9.4 24.6 9.4 33.9 0l28.3-28.3c9.4-9.4 9.4-24.6.1-34zM208 336c-70.7 0-128-57.2-128-128 0-70.7 57.2-128 128-128 70.7 0 128 57.2 128 128 0 70.7-57.2 128-128 128z"/>
    </symbol>
    <symbol id="search-minus" viewBox="0 0 512 512">
        <path d="M304 192v32c0 6.6-5.4 12-12 12H124c-6.6 0-12-5.4-12-12v-32c0-6.6 5.4-12 12-12h168c6.6 0 12 5.4 12 12zm201 284.7L476.7 505c-9.4 9.4-24.6 9.4-33.9 0L343 405.3c-4.5-4.5-7-10.6-7-17V372c-35.3 27.6-79.7 44-128 44C93.1 416 0 322.9 0 208S93.1 0 208 0s208 93.1 208 208c0 48.3-16.4 92.7-44 128h16.3c6.4 0 12.5 2.5 17 7l99.7 99.7c9.3 9.4 9.3 24.6 0 34zM344 208c0-75.2-60.8-136-136-136S72 132.8 72 208s60.8 136 136 136 136-60.8 136-136z"/>
    </symbol>
    <symbol id="check" viewBox="0 0 512 512">
        <path d="M173.898 439.404l-166.4-166.4c-9.997-9.997-9.997-26.206 0-36.204l36.203-36.204c9.997-9.998 26.207-9.998 36.204 0L192 312.69 432.095 72.596c9.997-9.997 26.207-9.997 36.204 0l36.203 36.204c9.997 9.997 9.997 26.206 0 36.204l-294.4 294.401c-9.998 9.997-26.207 9.997-36.204-.001z"/>
    </symbol>

    <symbol id="logout" viewBox="0 0 182.5 137">
        <path fill="none" stroke-width="16" stroke-linecap="round" stroke-miterlimit="10" d="M65,8c0,0-35.5,0-44,0
	S8,13.5,8,20.5s0,95,0,102.5s4.562,12,13,12c11,0,44,0,44,0"/>
        <polyline fill="none" stroke-width="16" stroke-linecap="round" stroke-linejoin="round"
                  stroke-miterlimit="10" points="
	124,127.5 180.5,71.962 124,15 "/>
        <line fill="none" stroke-width="16" stroke-linecap="round" stroke-miterlimit="10" x1="65"
              y1="72" x2="180" y2="72"/>
    </symbol>

    <symbol viewBox="0 0 448 512" id="trash">
        <path d="M268 416h24a12 12 0 0 0 12-12V188a12 12 0 0 0-12-12h-24a12 12 0 0 0-12 12v216a12 12 0 0 0 12 12zM432 80h-82.41l-34-56.7A48 48 0 0 0 274.41 0H173.59a48 48 0 0 0-41.16 23.3L98.41 80H16A16 16 0 0 0 0 96v16a16 16 0 0 0 16 16h16v336a48 48 0 0 0 48 48h288a48 48 0 0 0 48-48V128h16a16 16 0 0 0 16-16V96a16 16 0 0 0-16-16zM171.84 50.91A6 6 0 0 1 177 48h94a6 6 0 0 1 5.15 2.91L293.61 80H154.39zM368 464H80V128h288zm-212-48h24a12 12 0 0 0 12-12V188a12 12 0 0 0-12-12h-24a12 12 0 0 0-12 12v216a12 12 0 0 0 12 12z"/>
    </symbol>
    <symbol id="star-regular" viewBox="0 0 576 512">
        <path d="M528.1 171.5L382 150.2 316.7 17.8c-11.7-23.6-45.6-23.9-57.4 0L194 150.2 47.9 171.5c-26.2 3.8-36.7 36.1-17.7 54.6l105.7 103-25 145.5c-4.5 26.3 23.2 46 46.4 33.7L288 439.6l130.7 68.7c23.2 12.2 50.9-7.4 46.4-33.7l-25-145.5 105.7-103c19-18.5 8.5-50.8-17.7-54.6zM388.6 312.3l23.7 138.4L288 385.4l-124.3 65.3 23.7-138.4-100.6-98 139-20.2 62.2-126 62.2 126 139 20.2-100.6 98z"/>
    </symbol>
    <symbol id="star-solid" viewBox="0 0 576 512">
        <path d="M259.3 17.8L194 150.2 47.9 171.5c-26.2 3.8-36.7 36.1-17.7 54.6l105.7 103-25 145.5c-4.5 26.3 23.2 46 46.4 33.7L288 439.6l130.7 68.7c23.2 12.2 50.9-7.4 46.4-33.7l-25-145.5 105.7-103c19-18.5 8.5-50.8-17.7-54.6L382 150.2 316.7 17.8c-11.7-23.6-45.6-23.9-57.4 0z"/>
    </symbol>

    <symbol id="world" xmlns="http://www.w3.org/2000/svg" viewBox="0 0 240.565 240.565">

        <g>
            <path d="M120.283,12c28.924,0,56.115,11.263,76.567,31.715c20.451,20.452,31.715,47.644,31.715,76.567
		c0,28.924-11.264,56.116-31.715,76.567c-20.452,20.452-47.644,31.716-76.567,31.716c-28.923,0-56.115-11.264-76.567-31.716
		C23.263,176.398,12,149.206,12,120.282c0-28.923,11.263-56.115,31.715-76.567C64.167,23.263,91.359,12,120.283,12 M120.283,0
		C53.853,0,0,53.853,0,120.282c0,66.431,53.853,120.283,120.283,120.283c66.431,0,120.282-53.853,120.282-120.283
		C240.565,53.853,186.713,0,120.283,0L120.283,0z"/>
        </g>
        <path fill="none" stroke-width="12" stroke-miterlimit="10" d="M13.679,78.773c0,0,8.019,27.829,28.302,41.509
	s21.698,16.039,39.623,25.944s3.187,29.245,11.263,35.849s16.095,31.604,9.963,47.642"/>
        <path fill="none" stroke-width="12" stroke-miterlimit="10" d="M104.871,7.069l24.944,28.312
	c0,0,5.031,5.531-4.719,15.031s-3.734,9.266-0.484,12.766s8.508,8.508-10.492,10.258s-9.496,8.004-10.496,8.754
	s9.752,17.752,8.752,19.002s-2.249,9.251-8.999,4.001s-8.5-10-9.75-9.75s-15.25,6.75-15.25,6.75s-13,6-1.25,12.25
	s16.5,3.457,21.5,5.604s9.25,13.896,13.25,13.896s32.5,0,32.5,0s16-2,22.25,23.5s-8.25,10.75-10,21.25s-20,49.25-21.25,52.75"/>
        <path fill="none" stroke-width="12" stroke-miterlimit="10" d="M219.877,65.444l-21,10.25
	c0,0-11.5,11.75-12.5,17.5s0.5,15,4.75,21.25s7.5,9,7.5,9s4.5,5,34.25,8.75"/>
    </symbol>


    <symbol id="castle" viewBox="0 0 300 300">
        <g>
            <circle cx="149.709" cy="125.243" r="22.718"/>
            <rect x="79.806" y="182.33" width="139.806" height="7.572"/>
            <path d="M201.553,174.758h18.059v-26.797h-2.33c-4.078,0-6.99-2.913-6.99-6.408v-8.738
		c0-4.078,2.912-6.99,6.99-7.573h5.826v-22.136h-0.583h-20.389v71.651H201.553z"/>
            <rect x="222.524" y="71.65" width="56.505" height="5.825"/>
            <path d="M76.893,103.689v22.136h5.825c4.078,0,6.99,3.495,6.99,7.573v8.738c0,4.078-3.495,6.408-6.99,6.408h-2.33
		v26.214h17.476v-71.068H78.058C76.893,103.689,76.893,103.689,76.893,103.689z"/>
            <path d="M149.709,48.932l-44.272,53.01v72.816h88.543v-73.981L149.709,48.932z M149.709,155.534
		c-16.894,0-30.292-13.398-30.292-30.292s13.398-30.291,30.292-30.291c16.893,0,30.291,13.398,30.291,30.291
		S166.602,155.534,149.709,155.534L149.709,155.534z"/>
            <path d="M146.213,40.194c0.583-1.165,1.748-1.165,2.913-1.165l0,0c1.165,0,2.33,0.583,2.913,1.165l47.184,55.922
		h13.981l-64.078-74.563L85.631,95.534h13.981L146.213,40.194z"/>
            <rect x="217.864" y="133.398" width="65.243" height="6.99"/>
            <polygon points="49.515,9.32 40.194,37.864 59.417,37.864 	"/>
            <path d="M244.66,169.515v29.708h12.232v-29.708c0-3.495-2.912-6.407-6.407-6.407S244.66,166.02,244.66,169.515z"/>
            <path d="M273.787,199.223v-51.262h-46.02v51.262h9.32v-29.708c0-7.573,6.407-13.98,13.98-13.98
		c7.572,0,13.98,6.407,13.98,13.98v29.708H273.787z"/>
            <path d="M246.99,102.524v23.301h6.99v-23.301c0-1.748-1.165-3.495-3.495-3.495
		C248.738,98.447,246.99,100.194,246.99,102.524C246.99,101.942,246.99,101.942,246.99,102.524z"/>
            <polygon points="251.65,9.32 241.748,37.864 260.971,37.864 	"/>
            <path d="M266.796,46.02h-29.708v18.058h29.708V46.02z"/>
            <path d="M270.291,125.243V85.048H230.68v40.194h8.155v-23.301c0-6.408,5.243-11.068,11.067-11.068
		c5.826,0,11.068,5.243,11.068,11.068v23.301H270.291z"/>
            <path d="M171.262,238.252c0-11.65-9.32-21.553-21.553-21.553s-21.553,9.32-21.553,21.553v53.01h42.524v-53.01
		H171.262z"/>
            <path d="M214.369,222.524c-5.243-1.165-8.738-5.825-8.738-11.068c0-6.407,5.243-11.65,11.65-11.65h2.913v-1.747
		H80.388v1.164h2.913c6.408,0,11.651,5.243,11.651,11.651c0,5.243-3.496,9.903-8.738,11.067v68.156h34.952v-53.01
		c0-16.311,12.815-29.127,29.126-29.127s29.127,12.816,29.127,29.127l0,0v53.01h34.951V222.524z"/>
            <path d="M65.243,46.02H34.952v18.058H64.66V46.02H65.243z"/>
            <path d="M78.058,290.68v-68.155h-57.67v68.155h12.233v-45.438c0-9.32,7.573-16.311,16.311-16.311
		s16.311,7.573,16.311,16.311v45.438H78.058z"/>
            <path d="M279.611,290.68v-68.155h-57.67v68.155h12.233v-45.438c0-9.32,7.573-16.311,16.311-16.311
		s16.311,7.573,16.311,16.311v45.438H279.611z"/>
            <path d="M213.204,210.874c0,2.33,1.747,4.077,3.495,4.077h67.572c2.33,0,4.078-1.747,4.078-4.077
		c0-2.331-1.748-4.078-4.078-4.078h-67.572C214.951,207.379,213.204,209.126,213.204,210.874z"/>
            <path d="M40.194,245.242v45.438H57.67v-45.438c0-4.66-4.078-8.737-8.738-8.737S40.194,240,40.194,245.242z"/>
            <path d="M241.748,245.242v45.438h17.475v-45.438c0-4.66-4.077-8.737-8.737-8.737S241.748,240,241.748,245.242z"/>
            <path d="M15.146,214.951h67.573c2.33,0,4.078-1.747,4.078-4.077c0-2.331-1.748-4.078-4.078-4.078H15.146
		c-2.33,0-4.078,1.747-4.078,4.078C11.068,213.204,13.398,214.951,15.146,214.951z"/>
            <path d="M68.738,125.243V85.048H29.126v40.194h8.156v-23.301c0-6.408,5.243-11.068,11.068-11.068
		c6.408,0,11.068,5.243,11.068,11.068v23.301H68.738z"/>
            <path d="M43.107,169.515v29.708H55.34v-29.708c0-3.495-2.913-6.407-6.408-6.407
		C46.02,163.689,43.107,166.02,43.107,169.515z"/>
            <path d="M45.437,102.524v23.301h6.99v-23.301c0-1.748-1.165-3.495-3.495-3.495S45.437,100.194,45.437,102.524
		C45.437,101.942,45.437,101.942,45.437,102.524z"/>
            <rect x="20.971" y="71.65" width="56.505" height="5.825"/>
            <rect x="16.311" y="133.398" width="65.243" height="6.99"/>
            <path d="M72.233,199.223v-51.262h-46.02v51.262h8.738v-29.708c0-7.573,6.408-13.98,13.98-13.98
		s13.98,6.407,13.98,13.98v29.708H72.233z"/>
        </g>
    </symbol>


    <symbol id="news" viewBox="0 0 281.623 193.905">
        <path fill="none" stroke-width="12" stroke-miterlimit="10" d="M66.85,172.076c0,0,173.736,0,181.755,0
	s6.245-7,6.245-7s0-130.547,0-138.094s-7.84-7.62-7.84-7.62S62.755,20.377,54.736,19.434s-7.887,7.642-7.887,7.642v13
	c0,0,0,101.057,0,117.566s-13.274,14.15-13.274,14.15c-13.68,0-13.726-14.717-13.726-14.717v-117c0,0-0.49-6.962,6.585-6.962
	S42,32.642,42,32.642"/>
        <line fill="none" stroke-width="12" stroke-miterlimit="10" x1="66.85" y1="172.076" x2="33.85" y2="172.076"/>
        <path fill="none" stroke-width="12" stroke-miterlimit="10" d="M144.85,112.076c0,2.762-2.238,5-5,5h-59
	c-2.761,0-5-2.238-5-5v-59c0-2.761,2.239-5,5-5h59c2.762,0,5,2.239,5,5V112.076z"/>
        <line fill="none" stroke-width="12" stroke-linecap="round" stroke-miterlimit="10" x1="75.85" y1="144.076"
              x2="144.85" y2="144.076"/>
        <line fill="none" stroke-width="12" stroke-linecap="round" stroke-miterlimit="10" x1="171.85" y1="144.076"
              x2="227.85" y2="144.076"/>
        <line fill="none" stroke-width="12" stroke-linecap="round" stroke-miterlimit="10" x1="171.85" y1="117.076"
              x2="227.85" y2="117.076"/>
        <line fill="none" stroke-width="12" stroke-linecap="round" stroke-miterlimit="10" x1="171.85" y1="89.076"
              x2="227.85" y2="89.076"/>
        <line fill="none" stroke-width="12" stroke-linecap="round" stroke-miterlimit="10" x1="171.85" y1="61.076"
              x2="227.85" y2="61.076"/>
    </symbol>

    <symbol id="film" viewBox="0 0 512 512">
        <path
                d="M488 64h-8v20c0 6.6-5.4 12-12 12h-40c-6.6 0-12-5.4-12-12V64H96v20c0 6.6-5.4 12-12 12H44c-6.6 0-12-5.4-12-12V64h-8C10.7 64 0 74.7 0 88v336c0 13.3 10.7 24 24 24h8v-20c0-6.6 5.4-12 12-12h40c6.6 0 12 5.4 12 12v20h320v-20c0-6.6 5.4-12 12-12h40c6.6 0 12 5.4 12 12v20h8c13.3 0 24-10.7 24-24V88c0-13.3-10.7-24-24-24zM96 372c0 6.6-5.4 12-12 12H44c-6.6 0-12-5.4-12-12v-40c0-6.6 5.4-12 12-12h40c6.6 0 12 5.4 12 12v40zm0-96c0 6.6-5.4 12-12 12H44c-6.6 0-12-5.4-12-12v-40c0-6.6 5.4-12 12-12h40c6.6 0 12 5.4 12 12v40zm0-96c0 6.6-5.4 12-12 12H44c-6.6 0-12-5.4-12-12v-40c0-6.6 5.4-12 12-12h40c6.6 0 12 5.4 12 12v40zm272 208c0 6.6-5.4 12-12 12H156c-6.6 0-12-5.4-12-12v-96c0-6.6 5.4-12 12-12h200c6.6 0 12 5.4 12 12v96zm0-168c0 6.6-5.4 12-12 12H156c-6.6 0-12-5.4-12-12v-96c0-6.6 5.4-12 12-12h200c6.6 0 12 5.4 12 12v96zm112 152c0 6.6-5.4 12-12 12h-40c-6.6 0-12-5.4-12-12v-40c0-6.6 5.4-12 12-12h40c6.6 0 12 5.4 12 12v40zm0-96c0 6.6-5.4 12-12 12h-40c-6.6 0-12-5.4-12-12v-40c0-6.6 5.4-12 12-12h40c6.6 0 12 5.4 12 12v40zm0-96c0 6.6-5.4 12-12 12h-40c-6.6 0-12-5.4-12-12v-40c0-6.6 5.4-12 12-12h40c6.6 0 12 5.4 12 12v40z"/>
    </symbol>

    <symbol id="save" viewBox="0 0 448 512">
        <path
                d="M433.941 129.941l-83.882-83.882A48 48 0 0 0 316.118 32H48C21.49 32 0 53.49 0 80v352c0 26.51 21.49 48 48 48h352c26.51 0 48-21.49 48-48V163.882a48 48 0 0 0-14.059-33.941zM272 80v80H144V80h128zm122 352H54a6 6 0 0 1-6-6V86a6 6 0 0 1 6-6h42v104c0 13.255 10.745 24 24 24h176c13.255 0 24-10.745 24-24V83.882l78.243 78.243a6 6 0 0 1 1.757 4.243V426a6 6 0 0 1-6 6zM224 232c-48.523 0-88 39.477-88 88s39.477 88 88 88 88-39.477 88-88-39.477-88-88-88zm0 128c-22.056 0-40-17.944-40-40s17.944-40 40-40 40 17.944 40 40-17.944 40-40 40z"/>
    </symbol>

    <symbol id="sign" viewBox="0 0 192.723 201.5">
        <path fill="none" stroke-width="12" stroke-linejoin="round" stroke-miterlimit="12" d="M6.474,114.5
	c1.348-1.671,12.5-15.5,12.5-15.5c2.75-4,4.75-5,9.25-5s135.75,0,141.5,0s6.5,6.75,6.5,6.75s0,32.25,0,37s-6.25,5.25-6.25,5.25
	s-138.083,0-141.75,0s-5.896-0.495-8.25-3.5s-11-14-13.5-17.5S5.126,116.171,6.474,114.5z"/>
        <path fill="none" stroke-width="12" stroke-linejoin="round" stroke-miterlimit="12" d="M186.25,41.5
	c-1.348-1.671-12.5-15.5-12.5-15.5c-2.75-4-4.75-5-9.25-5S28.75,21,23,21s-6.5,6.75-6.5,6.75s0,32.25,0,37S22.75,70,22.75,70
	s138.082,0,141.75,0s5.896-0.495,8.25-3.5s11-14,13.5-17.5S187.597,43.171,186.25,41.5z"/>
        <line fill="none" stroke-width="12" stroke-linecap="round" stroke-linejoin="round" stroke-miterlimit="12"
              x1="96.974" y1="5" x2="96.974" y2="19.75"/>
        <line fill="none" stroke-width="12" stroke-linejoin="round" stroke-miterlimit="10" x1="96.974" y1="70"
              x2="96.974" y2="94"/>
        <line fill="none" stroke-width="12" stroke-linecap="round" stroke-linejoin="round" stroke-miterlimit="12"
              x1="96.974" y1="143" x2="96.974" y2="196.5"/>
    </symbol>
    <symbol id="running"
            viewBox="0 0 416 512">
        <path fill="currentColor"
              d="M272 96c26.51 0 48-21.49 48-48S298.51 0 272 0s-48 21.49-48 48 21.49 48 48 48zM113.69 317.47l-14.8 34.52H32c-17.67 0-32 14.33-32 32s14.33 32 32 32h77.45c19.25 0 36.58-11.44 44.11-29.09l8.79-20.52-10.67-6.3c-17.32-10.23-30.06-25.37-37.99-42.61zM384 223.99h-44.03l-26.06-53.25c-12.5-25.55-35.45-44.23-61.78-50.94l-71.08-21.14c-28.3-6.8-57.77-.55-80.84 17.14l-39.67 30.41c-14.03 10.75-16.69 30.83-5.92 44.86s30.84 16.66 44.86 5.92l39.69-30.41c7.67-5.89 17.44-8 25.27-6.14l14.7 4.37-37.46 87.39c-12.62 29.48-1.31 64.01 26.3 80.31l84.98 50.17-27.47 87.73c-5.28 16.86 4.11 34.81 20.97 40.09 3.19 1 6.41 1.48 9.58 1.48 13.61 0 26.23-8.77 30.52-22.45l31.64-101.06c5.91-20.77-2.89-43.08-21.64-54.39l-61.24-36.14 31.31-78.28 20.27 41.43c8 16.34 24.92 26.89 43.11 26.89H384c17.67 0 32-14.33 32-32s-14.33-31.99-32-31.99z"/>
    </symbol>
    <symbol id='success' viewBox="0 0 512 512">
        <path d="M256 8C119.033 8 8 119.033 8 256s111.033 248 248 248 248-111.033 248-248S392.967 8 256 8zm0 48c110.532 0 200 89.451 200 200 0 110.532-89.451 200-200 200-110.532 0-200-89.451-200-200 0-110.532 89.451-200 200-200m140.204 130.267l-22.536-22.718c-4.667-4.705-12.265-4.736-16.97-.068L215.346 303.697l-59.792-60.277c-4.667-4.705-12.265-4.736-16.97-.069l-22.719 22.536c-4.705 4.667-4.736 12.265-.068 16.971l90.781 91.516c4.667 4.705 12.265 4.736 16.97.068l172.589-171.204c4.704-4.668 4.734-12.266.067-16.971z"/>
    </symbol>

    <symbol id="exclamation" viewBox="0 0 300 300">
        <circle fill="none" stroke-width="12" stroke-miterlimit="10" cx="146.586" cy="150.376" r="94.812"/>
        <circle cx="146.548" cy="196.717" r="10.849"/>
        <path d="M136.75,105.25c0.125-1.5,1.167-4.25,3.583-4.25H152c2.812,0,3.334,1.729,3.667,3.083s-2.292,67.624-2.667,69.708
	s-0.438,2.771-3,3.771s-4.438,0.844-7-0.031s-3.167-4.057-3.167-4.057S136.625,106.75,136.75,105.25z"/>
    </symbol>
    <symbol id="alarm" viewBox="0 0 24 24">
        <path d="M0 0h24v24H0z"
              fill="none"/>
        <path d="M22 5.72l-4.6-3.86-1.29 1.53 4.6 3.86L22 5.72zM7.88 3.39L6.6 1.86 2 5.71l1.29 1.53 4.59-3.85zM12.5 8H11v6l4.75 2.85.75-1.23-4-2.37V8zM12 4c-4.97 0-9 4.03-9 9s4.02 9 9 9c4.97 0 9-4.03 9-9s-4.03-9-9-9zm0 16c-3.87 0-7-3.13-7-7s3.13-7 7-7 7 3.13 7 7-3.13 7-7 7z"/>
    </symbol>
    <symbol id="meme" viewBox="0 0 24.247 38.588">
        <path fill="none" stroke="#000000" stroke-miterlimit="10" d="M9.128,37.001c0,0,10.625-6.625,10.25-11"/>
        <path fill="none" stroke="#000000" stroke-miterlimit="10" d="M23.503,38.376c0,0,1.75-12.375-4.125-18.5
	c6.625-9,3.125-19.25-8.125-19.375S0.503,13.126,0.503,13.126s-0.125,6.125,7.375,9.125c1.125,6-3.625,16.125-3.625,16.125"/>
    </symbol>
</svg>


